<svg viewBox="0 0 24 24" fill="none" xmlns="http://www.w3.org/2000/svg">
<path fill-rule="evenodd" clip-rule="evenodd" d="M9.81011 11.0042C12.519 11.0042 14.715 8.76471 14.715 6.00212C14.715 3.23952 12.519 1 9.81011 1C7.10124 1 4.90527 3.23952 4.90527 6.00212C4.90527 8.76471 7.10124 11.0042 9.81011 11.0042ZM10.2389 13.5178C6.8913 13.3928 0 15.0935 0 18.5074V19.758C0 20.4457 0.551794 21.0085 1.22621 21.0085H11.698C8.6693 17.557 10.1898 13.6429 10.2389 13.5178ZM21.9612 15.006C22.2309 16.319 21.9489 17.5321 21.3726 18.5325L23.6411 20.871C24.1193 21.3587 24.1193 22.1465 23.6411 22.6342C23.1628 23.1219 22.3903 23.1219 21.9121 22.6342L19.6314 20.3082C18.6504 20.896 17.461 21.1836 16.1734 20.9085C14.1625 20.4833 12.5684 18.7576 12.2986 16.6817C11.8694 13.3928 14.5916 10.6291 17.8166 11.0543C19.8521 11.3169 21.5442 12.9551 21.9612 15.006ZM14.7143 16.0064C14.7143 17.382 15.8178 18.5075 17.1667 18.5075C18.5155 18.5075 19.6191 17.382 19.6191 16.0064C19.6191 14.6308 18.5155 13.5054 17.1667 13.5054C15.8178 13.5054 14.7143 14.6308 14.7143 16.0064Z" fill="currentColor"/>
</svg>
