<svg viewBox="0 0 24 24" fill="none" xmlns="http://www.w3.org/2000/svg">
<path d="M19.6364 14.25C19.3273 14.25 19.0684 14.142 18.8596 13.926C18.6502 13.7107 18.5455 13.4437 18.5455 13.125V10.875H16.3636C16.0545 10.875 15.7956 10.767 15.5869 10.551C15.3775 10.3357 15.2727 10.0687 15.2727 9.75C15.2727 9.43125 15.3775 9.16387 15.5869 8.94787C15.7956 8.73262 16.0545 8.625 16.3636 8.625H18.5455V6.375C18.5455 6.05625 18.6502 5.78888 18.8596 5.57288C19.0684 5.35763 19.3273 5.25 19.6364 5.25C19.9455 5.25 20.2044 5.35763 20.4131 5.57288C20.6225 5.78888 20.7273 6.05625 20.7273 6.375V8.625H22.9091C23.2182 8.625 23.4771 8.73262 23.6858 8.94787C23.8953 9.16387 24 9.43125 24 9.75C24 10.0687 23.8953 10.3357 23.6858 10.551C23.4771 10.767 23.2182 10.875 22.9091 10.875H20.7273V13.125C20.7273 13.4437 20.6225 13.7107 20.4131 13.926C20.2044 14.142 19.9455 14.25 19.6364 14.25ZM8.72727 12C7.52727 12 6.5 11.5594 5.64545 10.6781C4.79091 9.79687 4.36364 8.7375 4.36364 7.5C4.36364 6.2625 4.79091 5.20313 5.64545 4.32188C6.5 3.44063 7.52727 3 8.72727 3C9.92727 3 10.9545 3.44063 11.8091 4.32188C12.6636 5.20313 13.0909 6.2625 13.0909 7.5C13.0909 8.7375 12.6636 9.79687 11.8091 10.6781C10.9545 11.5594 9.92727 12 8.72727 12ZM1.09091 21C0.781818 21 0.522909 20.892 0.314182 20.676C0.104727 20.4607 0 20.1937 0 19.875V17.85C0 17.2125 0.159273 16.6264 0.477818 16.0916C0.795636 15.5576 1.21818 15.15 1.74545 14.8688C2.87273 14.2875 4.01818 13.8514 5.18182 13.5604C6.34545 13.2701 7.52727 13.125 8.72727 13.125C9.92727 13.125 11.1091 13.2701 12.2727 13.5604C13.4364 13.8514 14.5818 14.2875 15.7091 14.8688C16.2364 15.15 16.6589 15.5576 16.9767 16.0916C17.2953 16.6264 17.4545 17.2125 17.4545 17.85V19.875C17.4545 20.1937 17.3498 20.4607 17.1404 20.676C16.9316 20.892 16.6727 21 16.3636 21H1.09091Z" fill="currentColor"/>
</svg>
