<svg viewBox="0 0 24 24" fill="none" xmlns="http://www.w3.org/2000/svg">
<path d="M22.6759 14.2L19.8621 11.0833L20.8221 10.02C21.0648 9.75111 21.3738 9.61667 21.749 9.61667C22.1241 9.61667 22.4331 9.75111 22.6759 10.02L23.6359 11.0833C23.8786 11.3522 24 11.6944 24 12.11C24 12.5256 23.8786 12.8678 23.6359 13.1367L22.6759 14.2ZM11.9172 23V19.8833L18.9352 12.11L21.749 15.2267L14.731 23H11.9172ZM0 15.6667V12.7333H9.26897V15.6667H0ZM0 9.8V6.86667H14.5655V9.8H0ZM0 3.93333V1H14.5655V3.93333H0Z" fill="currentColor"/>
</svg>
