<svg viewBox="0 0 24 24" fill="none" xmlns="http://www.w3.org/2000/svg">
<path d="M23.3363 12.5898L19.0163 10.832C18.8625 10.7695 18.5438 10.6875 18.1838 10.832L13.8638 12.5898C13.4625 12.7539 13.2 13.1367 13.2 13.5625C13.2 17.9219 15.7763 20.9375 18.1838 21.918C18.5438 22.0625 18.8588 21.9805 19.0163 21.918C20.94 21.1367 24 18.4258 24 13.5625C24 13.1367 23.7375 12.7539 23.3363 12.5898ZM18.6 20.0625V12.6758L22.1813 14.1328C21.9713 17.5352 19.8975 19.4219 18.6 20.0625ZM8.4 12C11.0513 12 13.2 9.76172 13.2 7C13.2 4.23828 11.0513 2 8.4 2C5.74875 2 3.6 4.23828 3.6 7C3.6 9.76172 5.74875 12 8.4 12ZM12 13.5625C12 13.4648 12.03 13.375 12.0413 13.2812C11.9475 13.2773 11.8575 13.25 11.76 13.25H11.1337C10.3013 13.6484 9.375 13.875 8.4 13.875C7.425 13.875 6.5025 13.6484 5.66625 13.25H5.04C2.2575 13.25 0 15.6016 0 18.5V20.125C0 21.1602 0.80625 22 1.8 22H15C15.255 22 15.4988 21.9414 15.72 21.8438C13.695 20.168 12 17.2852 12 13.5625Z" fill="currentColor"/>
</svg>
