<svg viewBox="0 0 24 24" fill="none" xmlns="http://www.w3.org/2000/svg">
<path fill-rule="evenodd" clip-rule="evenodd" d="M6.204 4.22222L8.4 2H15.6L17.796 4.22222H21.6C22.92 4.22222 24 5.22222 24 6.44444V19.7778C24 21 22.92 22 21.6 22H2.4C1.08 22 0 21 0 19.7778V6.44444C0 5.22222 1.08 4.22222 2.4 4.22222H6.204ZM6 13.1111C6 16.1778 8.688 18.6667 12 18.6667C15.312 18.6667 18 16.1778 18 13.1111C18 10.0444 15.312 7.55556 12 7.55556C8.688 7.55556 6 10.0444 6 13.1111ZM15.8391 13.1128C15.8391 15.0765 14.1198 16.6684 11.9991 16.6684C9.87829 16.6684 8.15906 15.0765 8.15906 13.1128C8.15906 11.1492 9.87829 9.55729 11.9991 9.55729C14.1198 9.55729 15.8391 11.1492 15.8391 13.1128Z" fill="currentColor"/>
</svg>
