<svg viewBox="0 0 24 24" fill="none" xmlns="http://www.w3.org/2000/svg">
<g clip-path="url(#clip0_1048_3229)">
<path d="M12 0C6.48235 0 2 4.572 2 10.2C2 15.828 6.48235 20.4 12 20.4H12.5882V24C18.3059 21.192 22 15.6 22 10.2C22 4.572 17.5176 0 12 0ZM13.1765 17.4H10.8235V15H13.1765V17.4ZM13.1765 13.2H10.8235C10.8235 9.3 14.3529 9.6 14.3529 7.2C14.3529 5.88 13.2941 4.8 12 4.8C10.7059 4.8 9.64706 5.88 9.64706 7.2H7.29412C7.29412 4.548 9.4 2.4 12 2.4C14.6 2.4 16.7059 4.548 16.7059 7.2C16.7059 10.2 13.1765 10.5 13.1765 13.2Z" fill="currentColor"/>
</g>
<defs>
<clipPath id="clip0_1048_3229">
<rect width="24" height="24" fill="white"/>
</clipPath>
</defs>
</svg>
