<svg viewBox="0 0 24 24" fill="none" xmlns="http://www.w3.org/2000/svg">
<g clip-path="url(#clip0_1048_3065)">
<path fill-rule="evenodd" clip-rule="evenodd" d="M9.33346 13.3334H1.33335C0.600008 13.3334 0 12.7334 0 12V1.33334C0 0.600001 0.600008 0 1.33335 0H9.33346C10.0668 0 10.6668 0.600001 10.6668 1.33334V12C10.6668 12.7334 10.0668 13.3334 9.33346 13.3334ZM9.33346 24H1.33335C0.600008 24 0 23.4 0 22.6666V17.3333C0 16.6 0.600008 16 1.33335 16H9.33346C10.0668 16 10.6668 16.6 10.6668 17.3333V22.6666C10.6668 23.4 10.0668 24 9.33346 24ZM14.6665 24H22.6666C23.4 24 24 23.4 24 22.6667V12C24 11.2666 23.4 10.6666 22.6666 10.6666H14.6665C13.9332 10.6666 13.3332 11.2666 13.3332 12V22.6667C13.3332 23.4 13.9332 24 14.6665 24ZM13.3332 6.66668V1.33334C13.3332 0.600001 13.9332 0 14.6665 0H22.6666C23.4 0 24 0.600001 24 1.33334V6.66668C24 7.40001 23.4 8.00001 22.6666 8.00001H14.6665C13.9332 8.00001 13.3332 7.40001 13.3332 6.66668Z" fill="currentColor"/>
</g>
<defs>
<clipPath id="clip0_1048_3065">
<rect width="24" height="24" fill="white"/>
</clipPath>
</defs>
</svg>
