<svg viewBox="0 0 24 24" fill="none" xmlns="http://www.w3.org/2000/svg">
<path d="M9.6 16.8889V15.6667H1.212L1.2 20.5556C1.2 21.9122 2.268 23 3.6 23H20.4C21.732 23 22.8 21.9122 22.8 20.5556V15.6667H14.4V16.8889H9.6ZM21.6 5.88889H16.788V3.44444L14.388 1H9.588L7.188 3.44444V5.88889H2.4C1.08 5.88889 0 6.98889 0 8.33333V12C0 13.3567 1.068 14.4444 2.4 14.4444H9.6V12H14.4V14.4444H21.6C22.92 14.4444 24 13.3444 24 12V8.33333C24 6.98889 22.92 5.88889 21.6 5.88889ZM14.4 5.88889H9.6V3.44444H14.4V5.88889Z" fill="currentColor"/>
</svg>
