<svg viewBox="0 0 24 24" fill="none" xmlns="http://www.w3.org/2000/svg">
<path d="M12.5363 10.5333C9.41454 9.74667 8.41061 8.93333 8.41061 7.66667C8.41061 6.21333 9.79961 5.2 12.1238 5.2C14.5717 5.2 15.4794 6.33333 15.5619 8H18.6012C18.5049 5.70667 17.0609 3.6 14.1866 2.92V0H10.0609V2.88C7.39293 3.44 5.24754 5.12 5.24754 7.69333C5.24754 10.7733 7.87426 12.3067 11.7112 13.2C15.1493 14 15.8369 15.1733 15.8369 16.4133C15.8369 17.3333 15.1631 18.8 12.1238 18.8C9.29077 18.8 8.17682 17.5733 8.02554 16H5C5.16503 18.92 7.42043 20.56 10.0609 21.1067V24H14.1866V21.1333C16.8684 20.64 19 19.1333 19 16.4C19 12.6133 15.6582 11.32 12.5363 10.5333Z" fill="currentColor"/>
</svg>
