<svg viewBox="0 0 24 24" fill="none" xmlns="http://www.w3.org/2000/svg">
<path fill-rule="evenodd" clip-rule="evenodd" d="M22.8572 11.7257C21.5657 10.8229 19.9886 10.2857 18.2857 10.2857C13.8629 10.2857 10.2857 13.8629 10.2857 18.2857C10.2857 19.52 10.5714 20.6743 11.0629 21.7143H2.28572C1.01714 21.7143 0 20.6972 0 19.4286L0.0114286 6.85715C0.0114286 5.58858 1.01714 4.57143 2.28572 4.57143H6.85715V2.28572C6.85715 1.01714 7.87429 0 9.14286 0H13.7143C14.9829 0 16 1.01714 16 2.28572V4.57143H20.5714C21.84 4.57143 22.8572 5.58858 22.8572 6.85715V11.7257ZM13.7143 2.28572H9.14286V4.57143H13.7143V2.28572Z" fill="currentColor"/>
<path fill-rule="evenodd" clip-rule="evenodd" d="M12.5714 18.2857C12.5714 15.1314 15.1314 12.5714 18.2857 12.5714C21.44 12.5714 24 15.1314 24 18.2857C24 21.44 21.44 24 18.2857 24C15.1314 24 12.5714 21.44 12.5714 18.2857ZM17.7143 18.5143L20.1714 20.9714L20.9714 20.16L18.8571 18.0457V14.8571H17.7143V18.5143Z" fill="currentColor"/>
</svg>
