<svg viewBox="0 0 24 24" fill="none" xmlns="http://www.w3.org/2000/svg">
<path d="M12 4C6.54545 4 1.88727 7.31733 0 12C1.88727 16.6827 6.54545 20 12 20C17.4545 20 22.1127 16.6827 24 12C22.1127 7.31733 17.4545 4 12 4ZM12 17.3333C8.98909 17.3333 6.54545 14.944 6.54545 12C6.54545 9.056 8.98909 6.66667 12 6.66667C15.0109 6.66667 17.4545 9.056 17.4545 12C17.4545 14.944 15.0109 17.3333 12 17.3333ZM12 8.8C10.1891 8.8 8.72727 10.2293 8.72727 12C8.72727 13.7707 10.1891 15.2 12 15.2C13.8109 15.2 15.2727 13.7707 15.2727 12C15.2727 10.2293 13.8109 8.8 12 8.8Z" fill="currentColor"/>
</svg>
