<svg viewBox="0 0 24 24" fill="none" xmlns="http://www.w3.org/2000/svg">
<path fill-rule="evenodd" clip-rule="evenodd" d="M12.007 2.16094C15.2152 2.16094 15.5951 2.175 16.8568 2.23125C18.0293 2.28281 18.6625 2.47969 19.0846 2.64375C19.6428 2.85938 20.0461 3.12188 20.4636 3.53906C20.8857 3.96094 21.1436 4.35938 21.3594 4.91719C21.5236 5.33906 21.7205 5.97656 21.7721 7.14375C21.8284 8.40937 21.8425 8.78906 21.8425 11.9906C21.8425 15.1969 21.8284 15.5766 21.7721 16.8375C21.7205 18.0094 21.5236 18.6422 21.3594 19.0641C21.1436 19.6219 20.881 20.025 20.4636 20.4422C20.0414 20.8641 19.6428 21.1219 19.0846 21.3375C18.6625 21.5016 18.0246 21.6984 16.8568 21.75C15.5904 21.8062 15.2105 21.8203 12.007 21.8203C8.79891 21.8203 8.419 21.8062 7.15732 21.75C5.98476 21.6984 5.35157 21.5016 4.92945 21.3375C4.37131 21.1219 3.96795 20.8594 3.55052 20.4422C3.1284 20.0203 2.87043 19.6219 2.65468 19.0641C2.49052 18.6422 2.29353 18.0047 2.24194 16.8375C2.18566 15.5719 2.17159 15.1922 2.17159 11.9906C2.17159 8.78438 2.18566 8.40469 2.24194 7.14375C2.29353 5.97187 2.49052 5.33906 2.65468 4.91719C2.87043 4.35938 3.13309 3.95625 3.55052 3.53906C3.97264 3.11719 4.37131 2.85938 4.92945 2.64375C5.35157 2.47969 5.98945 2.28281 7.15732 2.23125C8.419 2.175 8.79891 2.16094 12.007 2.16094ZM12.007 0C8.74731 0 8.33926 0.0140625 7.05882 0.0703125C5.78308 0.126563 4.906 0.332812 4.14618 0.628125C3.35353 0.9375 2.68282 1.34531 2.01681 2.01562C1.3461 2.68125 0.93805 3.35156 0.628493 4.13906C0.333008 4.90313 0.126637 5.775 0.0703537 7.05C0.0140707 8.33437 0 8.74219 0 12C0 15.2578 0.0140707 15.6656 0.0703537 16.9453C0.126637 18.2203 0.333008 19.0969 0.628493 19.8563C0.93805 20.6484 1.3461 21.3188 2.01681 21.9844C2.68282 22.65 3.35353 23.0625 4.14149 23.3672C4.906 23.6625 5.77839 23.8687 7.05413 23.925C8.33457 23.9812 8.74262 23.9953 12.0023 23.9953C15.2621 23.9953 15.6701 23.9812 16.9506 23.925C18.2263 23.8687 19.1034 23.6625 19.8632 23.3672C20.6512 23.0625 21.3219 22.65 21.9879 21.9844C22.6539 21.3188 23.0666 20.6484 23.3715 19.8609C23.667 19.0969 23.8734 18.225 23.9296 16.95C23.9859 15.6703 24 15.2625 24 12.0047C24 8.74688 23.9859 8.33906 23.9296 7.05938C23.8734 5.78438 23.667 4.90781 23.3715 4.14844C23.076 3.35156 22.668 2.68125 21.9973 2.01562C21.3313 1.35 20.6605 0.9375 19.8726 0.632812C19.1081 0.3375 18.2357 0.13125 16.9599 0.075C15.6748 0.0140625 15.2668 0 12.007 0ZM12.007 5.83594C8.60192 5.83594 5.83936 8.59688 5.83936 12C5.83936 15.4031 8.60192 18.1641 12.007 18.1641C15.4122 18.1641 18.1747 15.4031 18.1747 12C18.1747 8.59688 15.4122 5.83594 12.007 5.83594ZM12.007 15.9984C9.79793 15.9984 8.00625 14.2078 8.00625 12C8.00625 9.79219 9.79793 8.00156 12.007 8.00156C14.2161 8.00156 16.0078 9.79219 16.0078 12C16.0078 14.2078 14.2161 15.9984 12.007 15.9984ZM18.4186 7.0312C19.2113 7.0312 19.8585 6.38902 19.8585 5.59214C19.8585 4.79995 19.2113 4.15308 18.4186 4.15308C17.626 4.15308 16.9787 4.79526 16.9787 5.59214C16.9787 6.38433 17.6213 7.0312 18.4186 7.0312Z" fill="currentColor"/>
</svg>
