<svg viewBox="0 0 24 24" fill="none" xmlns="http://www.w3.org/2000/svg">
<path fill-rule="evenodd" clip-rule="evenodd" d="M0.240613 1.00169C0.171136 1.01595 0.109205 1.05186 0.0653726 1.10328C0.0215402 1.15471 -0.00148067 1.21848 0.000233177 1.28372V6.94193C-0.000343442 6.97931 0.00718897 7.01641 0.0223929 7.05109C0.0375968 7.08577 0.0601691 7.11734 0.0887976 7.14395C0.117426 7.17057 0.15154 7.1917 0.189157 7.20613C0.226774 7.22055 0.267143 7.22798 0.30792 7.22798C0.348696 7.22798 0.389065 7.22055 0.426682 7.20613C0.464299 7.1917 0.498413 7.17057 0.527041 7.14395C0.55567 7.11734 0.578242 7.08577 0.593446 7.05109C0.60865 7.01641 0.616183 6.97931 0.615606 6.94193V1.56575H6.48088C6.52165 1.56628 6.56213 1.55937 6.59996 1.54544C6.6378 1.5315 6.67224 1.51081 6.70127 1.48457C6.73031 1.45833 6.75337 1.42706 6.7691 1.39258C6.78484 1.3581 6.79295 1.3211 6.79295 1.28372C6.79295 1.24635 6.78484 1.20934 6.7691 1.17486C6.75337 1.14038 6.73031 1.10911 6.70127 1.08287C6.67224 1.05663 6.6378 1.03594 6.59996 1.022C6.56213 1.00807 6.52165 1.00116 6.48088 1.00169H0.30792C0.285552 0.999436 0.262981 0.999436 0.240613 1.00169ZM17.4614 1.00169C17.3798 1.0087 17.3046 1.04514 17.2523 1.10299C17.2 1.16084 17.1749 1.23536 17.1826 1.31016C17.1902 1.38496 17.23 1.45391 17.2931 1.50184C17.3562 1.54977 17.4375 1.57276 17.5191 1.56575H23.3844V6.94193C23.3838 6.97931 23.3913 7.01641 23.4066 7.05109C23.4218 7.08577 23.4443 7.11734 23.473 7.14395C23.5016 7.17057 23.5357 7.1917 23.5733 7.20613C23.6109 7.22055 23.6513 7.22798 23.6921 7.22798C23.7329 7.22798 23.7732 7.22055 23.8108 7.20613C23.8485 7.1917 23.8826 7.17057 23.9112 7.14395C23.9398 7.11734 23.9624 7.08577 23.9776 7.05109C23.9928 7.01641 24.0003 6.97931 23.9998 6.94193V1.28372C23.9998 1.20892 23.9673 1.13719 23.9096 1.0843C23.8519 1.03142 23.7737 1.0017 23.6921 1.00169H17.5191C17.4999 1.00004 17.4806 1.00004 17.4614 1.00169ZM0.269459 16.7689C0.193006 16.7777 0.12293 16.8124 0.0730802 16.8663C0.0232305 16.9201 -0.00276453 16.9892 0.000233177 17.0597V22.7179C0.000241336 22.7927 0.032661 22.8645 0.0903616 22.9174C0.148062 22.9702 0.226319 23 0.30792 23H6.48088C6.52165 23.0005 6.56213 22.9936 6.59996 22.9797C6.6378 22.9657 6.67224 22.945 6.70127 22.9188C6.73031 22.8926 6.75337 22.8613 6.7691 22.8268C6.78484 22.7923 6.79295 22.7553 6.79295 22.7179C6.79295 22.6806 6.78484 22.6436 6.7691 22.6091C6.75337 22.5746 6.73031 22.5433 6.70127 22.5171C6.67224 22.4909 6.6378 22.4702 6.59996 22.4562C6.56213 22.4423 6.52165 22.4354 6.48088 22.4359H0.615606V17.0597C0.617352 17.0188 0.609351 16.978 0.592159 16.9402C0.574968 16.9024 0.548998 16.8685 0.516056 16.8408C0.483113 16.8131 0.44399 16.7923 0.401404 16.7799C0.358818 16.7675 0.313793 16.7637 0.269459 16.7689ZM23.6536 16.7689C23.5772 16.7777 23.5071 16.8124 23.4572 16.8663C23.4074 16.9201 23.3814 16.9892 23.3844 17.0597V22.4359H17.5191C17.4784 22.4354 17.4379 22.4423 17.4 22.4562C17.3622 22.4702 17.3278 22.4909 17.2987 22.5171C17.2697 22.5433 17.2466 22.5746 17.2309 22.6091C17.2152 22.6436 17.2071 22.6806 17.2071 22.7179C17.2071 22.7553 17.2152 22.7923 17.2309 22.8268C17.2466 22.8613 17.2697 22.8926 17.2987 22.9188C17.3278 22.945 17.3622 22.9657 17.4 22.9797C17.4379 22.9936 17.4784 23.0005 17.5191 23H23.6921C23.7737 23 23.8519 22.9702 23.9096 22.9174C23.9673 22.8645 23.9998 22.7927 23.9998 22.7179V17.0597C24.0015 17.0188 23.9935 16.978 23.9763 16.9402C23.9591 16.9024 23.9332 16.8685 23.9002 16.8408C23.8673 16.8131 23.8281 16.7923 23.7856 16.7799C23.743 16.7675 23.698 16.7637 23.6536 16.7689ZM20.835 16.1139V19.6989C20.835 19.9189 20.6404 20.0972 20.4004 20.0972H16.4892C16.2492 20.0972 16.0547 19.9189 16.0547 19.6989C16.0547 19.4789 16.2492 19.3006 16.4892 19.3006H19.3512L14.0931 14.4809L14.7077 13.9176L19.9658 18.7372V16.1139C19.9658 15.8939 20.1604 15.7156 20.4004 15.7156C20.6404 15.7156 20.835 15.8939 20.835 16.1139ZM20.4004 3.90147L16.4892 3.90147C16.2492 3.90147 16.0547 4.07981 16.0547 4.29981C16.0547 4.5198 16.2492 4.69814 16.4892 4.69814L19.3512 4.69814L14.0931 9.51782L14.7077 10.0811L19.9658 5.26147V7.88481C19.9658 8.10481 20.1604 8.28315 20.4004 8.28315C20.6404 8.28315 20.835 8.10481 20.835 7.88481V4.29981C20.835 4.07981 20.6404 3.90147 20.4004 3.90147ZM3.16504 7.88481L3.16504 4.29981C3.16504 4.07981 3.3596 3.90147 3.59961 3.90147L7.51075 3.90147C7.75076 3.90147 7.94532 4.07981 7.94533 4.29981C7.94532 4.5198 7.75076 4.69814 7.51075 4.69814L4.64876 4.69814L9.9069 9.51782L9.29232 10.0811L4.03418 5.26147V7.88481C4.03418 8.10481 3.83962 8.28315 3.59961 8.28315C3.3596 8.28315 3.16504 8.10481 3.16504 7.88481ZM3.59961 20.0972H7.51075C7.75076 20.0972 7.94532 19.9189 7.94533 19.6989C7.94532 19.4789 7.75076 19.3006 7.51075 19.3006H4.64876L9.9069 14.4809L9.29232 13.9176L4.03418 18.7372V16.1139C4.03418 15.8939 3.83962 15.7156 3.59961 15.7156C3.3596 15.7156 3.16504 15.8939 3.16504 16.1139L3.16504 19.6989C3.16504 19.9189 3.3596 20.0972 3.59961 20.0972Z" fill="currentColor"/>
</svg>
