<svg viewBox="0 0 24 24" fill="none" xmlns="http://www.w3.org/2000/svg">
<path d="M18.75 8H17.625V5.71429C17.625 2.56 15.105 0 12 0C8.895 0 6.375 2.56 6.375 5.71429V8H5.25C4.0125 8 3 9.02857 3 10.2857V21.7143C3 22.9714 4.0125 24 5.25 24H18.75C19.9875 24 21 22.9714 21 21.7143V10.2857C21 9.02857 19.9875 8 18.75 8ZM12 18.2857C10.7625 18.2857 9.75 17.2571 9.75 16C9.75 14.7429 10.7625 13.7143 12 13.7143C13.2375 13.7143 14.25 14.7429 14.25 16C14.25 17.2571 13.2375 18.2857 12 18.2857ZM15.4875 8H8.5125V5.71429C8.5125 3.76 10.0763 2.17143 12 2.17143C13.9237 2.17143 15.4875 3.76 15.4875 5.71429V8Z" fill="currentColor"/>
</svg>
