<svg viewBox="0 0 24 24" fill="none" xmlns="http://www.w3.org/2000/svg">
<path d="M11.2234 12.5155L12.5 11.555L13.7469 12.5155C13.9844 12.6901 14.2219 12.6948 14.4594 12.5294C14.6969 12.3649 14.776 12.1468 14.6969 11.8752L14.1922 10.3034L15.6172 9.19742C15.8349 9.02279 15.8994 8.8043 15.8108 8.54196C15.7213 8.2804 15.538 8.14961 15.2609 8.14961H13.5687L13.0641 6.60701C12.9651 6.33535 12.7771 6.19953 12.5 6.19953C12.2229 6.19953 12.0349 6.33535 11.9359 6.60701L11.4313 8.14961H9.73906C9.44219 8.14961 9.24942 8.2804 9.16075 8.54196C9.07129 8.8043 9.13542 9.02279 9.35313 9.19742L10.7781 10.3034L10.2734 11.8752C10.1745 12.1468 10.2485 12.3649 10.4955 12.5294C10.7433 12.6948 10.9859 12.6901 11.2234 12.5155ZM6.94844 23.9249C6.5526 24.0608 6.19121 24.0123 5.86425 23.7794C5.53808 23.5466 5.375 23.2361 5.375 22.848V15.4552C4.62292 14.6402 4.03906 13.7088 3.62344 12.661C3.20781 11.6132 3 10.4975 3 9.31384C3 6.71373 3.92031 4.51139 5.76094 2.70684C7.60156 0.902279 9.84792 0 12.5 0C15.1521 0 17.3984 0.902279 19.2391 2.70684C21.0797 4.51139 22 6.71373 22 9.31384C22 10.4975 21.7922 11.6132 21.3766 12.661C20.9609 13.7088 20.3771 14.6402 19.625 15.4552V22.848C19.625 23.2361 19.4615 23.5466 19.1346 23.7794C18.8084 24.0123 18.4474 24.0608 18.0516 23.9249L12.5 22.1204L6.94844 23.9249ZM12.5 16.2992C14.4792 16.2992 16.1615 15.6201 17.5469 14.2618C18.9323 12.9036 19.625 11.2542 19.625 9.31384C19.625 7.37346 18.9323 5.72413 17.5469 4.36586C16.1615 3.0076 14.4792 2.32846 12.5 2.32846C10.5208 2.32846 8.83854 3.0076 7.45312 4.36586C6.06771 5.72413 5.375 7.37346 5.375 9.31384C5.375 11.2542 6.06771 12.9036 7.45312 14.2618C8.83854 15.6201 10.5208 16.2992 12.5 16.2992Z" fill="currentColor"/>
</svg>
