<svg viewBox="0 0 24 24" fill="none" xmlns="http://www.w3.org/2000/svg">
<path d="M11.3913 24L5 12.9076V11.4286H5.74396C7.5475 11.4286 8.9227 11.1709 9.86956 10.6555C10.839 10.1401 11.4026 9.21008 11.5604 7.86555H5V5.71429H11.5266C11.3011 4.45938 10.7037 3.55182 9.7343 2.9916C8.78744 2.43137 7.45733 2.15126 5.74396 2.15126H5V0H19V2.15126H12.6087C13.6908 3.02521 14.3333 4.21289 14.5362 5.71429H19V7.86555H14.6039C14.4461 9.5014 13.8148 10.7787 12.7101 11.6975C11.628 12.5938 10.1852 13.1653 8.38164 13.4118L14.8406 24H11.3913Z" fill="currentColor"/>
</svg>
