<svg viewBox="0 0 24 24" fill="none" xmlns="http://www.w3.org/2000/svg">
<g clip-path="url(#clip0_1048_3264)">
<path d="M12 5.88889V1H0V23H24V5.88889H12ZM4.8 20.5556H2.4V18.1111H4.8V20.5556ZM4.8 15.6667H2.4V13.2222H4.8V15.6667ZM4.8 10.7778H2.4V8.33333H4.8V10.7778ZM4.8 5.88889H2.4V3.44444H4.8V5.88889ZM9.6 20.5556H7.2V18.1111H9.6V20.5556ZM9.6 15.6667H7.2V13.2222H9.6V15.6667ZM9.6 10.7778H7.2V8.33333H9.6V10.7778ZM9.6 5.88889H7.2V3.44444H9.6V5.88889ZM21.6 20.5556H12V18.1111H14.4V15.6667H12V13.2222H14.4V10.7778H12V8.33333H21.6V20.5556ZM19.2 10.7778H16.8V13.2222H19.2V10.7778ZM19.2 15.6667H16.8V18.1111H19.2V15.6667Z" fill="currentColor"/>
</g>
<defs>
<clipPath id="clip0_1048_3264">
<rect width="24" height="24" fill="white"/>
</clipPath>
</defs>
</svg>
