<svg viewBox="0 0 24 24" fill="none" xmlns="http://www.w3.org/2000/svg">
<path d="M18.2857 21.7143H2.28571V5.71429H12.5714V3.42857H2.28571C1.02857 3.42857 0 4.45714 0 5.71429V21.7143C0 22.9714 1.02857 24 2.28571 24H18.2857C19.5429 24 20.5714 22.9714 20.5714 21.7143V11.4286H18.2857V21.7143ZM9.38286 18.0914L7.14286 15.3943L4 19.4286H16.5714L12.5257 14.0457L9.38286 18.0914ZM20.5714 3.42857V0H18.2857V3.42857H14.8571C14.8686 3.44 14.8571 5.71429 14.8571 5.71429H18.2857V9.13143C18.2971 9.14286 20.5714 9.13143 20.5714 9.13143V5.71429H24V3.42857H20.5714Z" fill="currentColor"/>
</svg>
