<svg viewBox="0 0 24 24" fill="none" xmlns="http://www.w3.org/2000/svg">
<path d="M8.40033 12.4998C11.0517 12.4998 13.2005 10.3735 13.2005 7.74989C13.2005 5.12632 11.0517 3 8.40033 3C5.74897 3 3.60014 5.12632 3.60014 7.74989C3.60014 10.3735 5.74897 12.4998 8.40033 12.4998ZM11.7605 13.6872H11.1342C10.3017 14.0658 9.37537 14.281 8.40033 14.281C7.42529 14.281 6.50275 14.0658 5.66647 13.6872H5.0402C2.25759 13.6872 0 15.9212 0 18.6746V20.2183C0 21.2017 0.806282 21.9995 1.80007 21.9995H12.1092C12.0192 21.7472 11.9817 21.48 12.0117 21.2091L12.2667 18.9492L12.3117 18.5373L12.608 18.2442L15.5069 15.3757C14.5881 14.3478 13.2568 13.6872 11.7605 13.6872ZM13.4593 19.0791L13.2043 21.3427C13.163 21.7212 13.4855 22.0404 13.8643 21.9958L16.1481 21.7435L21.3196 16.6262L18.6307 13.9656L13.4593 19.0791ZM23.7384 12.9785L22.3171 11.5721C21.9684 11.227 21.3983 11.227 21.0496 11.5721L19.632 12.9748L19.4783 13.1269L22.1709 15.7876L23.7384 14.2365C24.0872 13.8876 24.0872 13.3273 23.7384 12.9785Z" fill="currentColor"/>
</svg>
