<svg viewBox="0 0 24 24" fill="none" xmlns="http://www.w3.org/2000/svg">
<path fill-rule="evenodd" clip-rule="evenodd" d="M0.7056 21.2662C1.1752 21.7554 1.74 22 2.4 22H16.8C17.46 22 18.0252 21.7554 18.4956 21.2662C18.9652 20.7762 19.2 20.1875 19.2 19.5V13.875L22.98 17.8125C23.16 18 23.3752 18.0467 23.6256 17.9525C23.8752 17.8592 24 17.6667 24 17.375V6.625C24 6.33333 23.8752 6.14042 23.6256 6.04625C23.3752 5.95292 23.16 6 22.98 6.1875L19.2 10.125V4.5C19.2 3.8125 18.9652 3.22417 18.4956 2.735C18.0252 2.245 17.46 2 16.8 2H2.4C1.74 2 1.1752 2.245 0.7056 2.735C0.2352 3.22417 0 3.8125 0 4.5V19.5C0 20.1875 0.2352 20.7762 0.7056 21.2662ZM13.2 15.75V13.875H14.4V15.75C14.4 16.4375 13.86 17 13.2 17H6C5.34 17 4.8 16.4375 4.8 15.75V13.875H6V15.75H13.2ZM7.446 11.0063L6.6 10.125L9.6 7L12.6 10.125L11.754 11.0063L10.2 9.39375V14.5H9V9.39375L7.446 11.0063Z" fill="currentColor"/>
</svg>
