<svg viewBox="0 0 24 24" fill="none" xmlns="http://www.w3.org/2000/svg">
<path d="M12.0055 6.21053C15.0177 6.21053 17.4625 8.56842 17.4625 11.4737C17.4625 12.1579 17.3206 12.8 17.0696 13.4L20.2565 16.4737C21.9045 15.1474 23.2033 13.4316 24 11.4737C22.1119 6.85263 17.4516 3.57895 11.9945 3.57895C10.4666 3.57895 9.00409 3.84211 7.65075 4.31579L10.0082 6.58947C10.6303 6.34737 11.296 6.21053 12.0055 6.21053ZM1.09141 3.33684L3.57981 5.73684L4.08185 6.22105C2.27012 7.57895 0.851296 9.38947 0 11.4737C1.88813 16.0947 6.54843 19.3684 12.0055 19.3684C13.6971 19.3684 15.3124 19.0526 16.7858 18.4842L17.2442 18.9263L20.442 22L21.8281 20.6632L2.47749 2L1.09141 3.33684ZM7.12688 9.1579L8.81855 10.7895C8.76398 11.0105 8.73124 11.2421 8.73124 11.4737C8.73124 13.2211 10.1937 14.6316 12.0055 14.6316C12.2456 14.6316 12.4857 14.6 12.7149 14.5474L14.4065 16.1789C13.6753 16.5263 12.8677 16.7368 12.0055 16.7368C8.99318 16.7368 6.54843 14.3789 6.54843 11.4737C6.54843 10.6421 6.76671 9.86316 7.12688 9.1579ZM11.8308 8.33684L15.2688 11.6526L15.2906 11.4842C15.2906 9.73684 13.8281 8.32632 12.0164 8.32632L11.8308 8.33684Z" fill="currentColor"/>
</svg>
