<svg width="10" height="12" viewBox="0 0 10 12" fill="none" xmlns="http://www.w3.org/2000/svg">
<path d="M4.32812 6.25774L5 5.77749L5.65625 6.25774C5.78125 6.34506 5.90625 6.34739 6.03125 6.26472C6.15625 6.18245 6.19792 6.0734 6.15625 5.93758L5.89062 5.15172L6.64062 4.59871C6.75521 4.51139 6.78917 4.40215 6.7425 4.27098C6.69542 4.1402 6.59896 4.07481 6.45312 4.07481H5.5625L5.29688 3.3035C5.24479 3.16768 5.14583 3.09976 5 3.09976C4.85417 3.09976 4.75521 3.16768 4.70312 3.3035L4.4375 4.07481H3.54688C3.39062 4.07481 3.28917 4.1402 3.2425 4.27098C3.19542 4.40215 3.22917 4.51139 3.34375 4.59871L4.09375 5.15172L3.82812 5.93758C3.77604 6.0734 3.815 6.18245 3.945 6.26472C4.07542 6.34739 4.20312 6.34506 4.32812 6.25774ZM2.07812 11.9625C1.86979 12.0304 1.67958 12.0061 1.5075 11.8897C1.33583 11.7733 1.25 11.6181 1.25 11.424V7.72758C0.854167 7.3201 0.546875 6.85441 0.328125 6.3305C0.109375 5.8066 0 5.24874 0 4.65692C0 3.35686 0.484375 2.2557 1.45312 1.35342C2.42187 0.451139 3.60417 0 5 0C6.39583 0 7.57812 0.451139 8.54688 1.35342C9.51562 2.2557 10 3.35686 10 4.65692C10 5.24874 9.89062 5.8066 9.67188 6.3305C9.45312 6.85441 9.14583 7.3201 8.75 7.72758V11.424C8.75 11.6181 8.66396 11.7733 8.49187 11.8897C8.32021 12.0061 8.13021 12.0304 7.92187 11.9625L5 11.0602L2.07812 11.9625ZM5 8.14961C6.04167 8.14961 6.92708 7.81005 7.65625 7.13091C8.38542 6.45178 8.75 5.62711 8.75 4.65692C8.75 3.68673 8.38542 2.86207 7.65625 2.18293C6.92708 1.5038 6.04167 1.16423 5 1.16423C3.95833 1.16423 3.07292 1.5038 2.34375 2.18293C1.61458 2.86207 1.25 3.68673 1.25 4.65692C1.25 5.62711 1.61458 6.45178 2.34375 7.13091C3.07292 7.81005 3.95833 8.14961 5 8.14961Z" fill="#696978"/>
</svg>
