<svg width="24" height="24" viewBox="0 0 24 24" fill="none" xmlns="http://www.w3.org/2000/svg">
<path d="M15.6442 1.97015H14.6665V0.985075C14.6665 0.443284 14.2265 0 13.6887 0C13.1509 0 12.7109 0.443284 12.7109 0.985075V1.97015H4.88882V0.985075C4.88882 0.443284 4.44883 0 3.91106 0C3.37329 0 2.93329 0.443284 2.93329 0.985075V1.97015H1.95553C0.87021 1.97015 0.00977763 2.85672 0.00977763 3.9403L0 17.7314C0 18.8149 0.87021 19.7015 1.95553 19.7015H15.6442C16.7198 19.7015 17.5998 18.8149 17.5998 17.7314V3.9403C17.5998 2.85672 16.7198 1.97015 15.6442 1.97015ZM15.6442 16.7463C15.6442 17.2881 15.2042 17.7314 14.6665 17.7314H2.93329C2.39552 17.7314 1.95553 17.2881 1.95553 16.7463V6.89553H15.6442V16.7463ZM3.91106 8.86568H5.86659V10.8358H3.91106V8.86568ZM7.82211 8.86568H9.77764V10.8358H7.82211V8.86568ZM11.7332 8.86568H13.6887V10.8358H11.7332V8.86568Z" fill="#05447A"/>
<path d="M17.3945 11.1508L17.3943 11.1508C14.441 11.0669 12.0115 13.2488 11.541 16.0748H11.5099C10.334 16.0748 9.85759 17.4732 10.6089 18.2384L12.0835 19.7663L12.0847 19.7676C12.3754 20.0677 12.7733 20.193 13.1535 20.1434C13.0117 20.7021 13.1738 21.3316 13.6755 21.7329C14.6508 22.5262 15.8823 22.9992 17.2281 22.9992C20.4964 22.9992 23.0857 20.2237 22.9973 16.9059L22.9973 16.9057C22.9149 13.8368 20.438 11.2379 17.3945 11.1508ZM15.6982 17.058C15.5921 16.5872 15.233 16.1779 14.685 16.0915C14.9053 15.4679 15.3291 14.9541 15.8669 14.6281C15.7587 14.8301 15.6982 15.0591 15.6982 15.2965V17.058ZM18.4931 15.291C18.4931 14.98 18.3886 14.6851 18.2099 14.4466C19.1845 14.8608 19.9224 15.8654 19.9379 17.0324C19.9401 17.2094 19.927 17.3821 19.9 17.5493C19.8034 17.4293 19.6851 17.3231 19.546 17.2369L19.546 17.2369L19.542 17.2345L18.4931 16.5915V15.291ZM18.0954 19.6495C18.1332 19.6722 18.1715 19.693 18.2103 19.7118C17.904 19.8367 17.5722 19.9049 17.2281 19.9049C16.6145 19.9049 16.0457 19.6894 15.5911 19.3194L15.5911 19.3194L15.5847 19.3143C15.312 19.0961 14.9857 18.9845 14.6588 18.9788L15.3762 18.2356C15.3764 18.2353 15.3766 18.2351 15.3768 18.2349C15.5688 18.0364 15.679 17.7952 15.7164 17.5467C15.7848 17.9895 16.0428 18.3901 16.4312 18.6307L16.4312 18.6307L16.4357 18.6335L18.0892 19.6457L18.0892 19.6457L18.0954 19.6495Z" fill="#05447A" stroke="#F9F9F9" stroke-width="2"/>
</svg>
