<svg width="21" height="19" viewBox="0 0 21 19" fill="none" xmlns="http://www.w3.org/2000/svg">
<path fill-rule="evenodd" clip-rule="evenodd" d="M8.67526 1C6.69462 1 5.08789 2.60788 5.08789 4.59265C5.08789 6.57743 6.69462 8.18531 8.67526 8.18531C10.6559 8.18531 12.2626 6.57743 12.2626 4.59265C12.2626 2.60788 10.6559 1 8.67526 1ZM4.08789 4.59265C4.08789 2.05681 6.14112 0 8.67526 0C11.2094 0 13.2626 2.05681 13.2626 4.59265C13.2626 7.1285 11.2094 9.18531 8.67526 9.18531C6.14112 9.18531 4.08789 7.1285 4.08789 4.59265ZM3.54106 11.2301C5.38501 10.523 7.58508 10.1882 9.05071 10.2419L9.76001 10.2679L9.4967 10.9271C9.46652 11.0026 8.30368 13.9442 10.6212 16.5371L11.3659 17.3703H1.52184C0.683077 17.3703 0 16.6854 0 15.8472V14.824C0 13.937 0.459913 13.2012 1.10716 12.621C1.75153 12.0434 2.61814 11.584 3.54106 11.2301ZM1.77463 13.3657C1.25793 13.8288 1 14.3144 1 14.824V15.8472C1 16.1344 1.23658 16.3703 1.52184 16.3703H9.23331C7.9009 14.3419 8.11726 12.283 8.36088 11.244C7.06825 11.2952 5.36108 11.6032 3.8991 12.1638C3.03763 12.4941 2.2942 12.8999 1.77463 13.3657ZM15.4111 8.23101C12.4001 7.84168 9.85265 10.3786 10.2536 13.3968C10.5067 15.3082 11.995 16.888 13.8757 17.2788C14.9372 17.5015 15.927 17.3228 16.7684 16.9143L18.4068 18.5548C19.0006 19.1494 19.9613 19.1494 20.5551 18.5548C21.1483 17.9609 21.1486 17.0008 20.5561 16.4065L20.5551 16.4055L18.9254 14.756C19.3343 13.9133 19.5133 12.9217 19.2909 11.8583C18.9014 9.97822 17.3256 8.47382 15.4111 8.23101ZM11.2449 13.2653C10.9309 10.9021 12.9199 8.91687 15.2834 9.22282L15.2848 9.22299C16.7623 9.41016 18.0063 10.5861 18.3118 12.0615L18.312 12.0626C18.5081 12.9998 18.3056 13.8666 17.8797 14.5924L17.6853 14.9237L19.8457 17.1102L19.8476 17.1121C20.0511 17.3159 20.0511 17.6443 19.8476 17.8481C19.6444 18.0516 19.3175 18.0516 19.1143 17.8481L16.9401 15.6711L16.6064 15.8674C15.8817 16.2937 15.0165 16.4964 14.081 16.3001L14.08 16.2999C12.6095 15.9947 11.4415 14.7503 11.2449 13.2653ZM13.2623 12.7787C13.2623 11.9287 13.9587 11.2324 14.806 11.2324C15.6533 11.2324 16.3497 11.9287 16.3497 12.7787C16.3497 13.6286 15.6533 14.325 14.806 14.325C13.9587 14.325 13.2623 13.6286 13.2623 12.7787ZM14.806 10.2324C13.4052 10.2324 12.2623 11.3777 12.2623 12.7787C12.2623 14.1797 13.4052 15.325 14.806 15.325C16.2068 15.325 17.3497 14.1797 17.3497 12.7787C17.3497 11.3777 16.2068 10.2324 14.806 10.2324Z" fill="#05447A"/>
</svg>
