<svg width="21" height="20" viewBox="0 0 21 20" fill="none" xmlns="http://www.w3.org/2000/svg">
<path d="M8 3.83333V0.5H0V15.5H16V3.83333H8ZM3.2 13.8333H1.6V12.1667H3.2V13.8333ZM3.2 10.5H1.6V8.83333H3.2V10.5ZM3.2 7.16667H1.6V5.5H3.2V7.16667ZM3.2 3.83333H1.6V2.16667H3.2V3.83333ZM6.4 13.8333H4.8V12.1667H6.4V13.8333ZM6.4 10.5H4.8V8.83333H6.4V10.5ZM6.4 7.16667H4.8V5.5H6.4V7.16667ZM6.4 3.83333H4.8V2.16667H6.4V3.83333ZM14.4 13.8333H8V12.1667H9.6V10.5H8V8.83333H9.6V7.16667H8V5.5H14.4V13.8333ZM12.8 7.16667H11.2V8.83333H12.8V7.16667ZM12.8 10.5H11.2V12.1667H12.8V10.5Z" fill="white"/>
<path d="M16 11V10.5H15.5H14.5H14V11V12.5H12.5H12V13V14V14.5H12.5H14V16V16.5H14.5H15.5H16V16V14.5H17.5H18V14V13V12.5H17.5H16V11ZM15 8C11.9639 8 9.5 10.4639 9.5 13.5C9.5 16.5361 11.9639 19 15 19C18.0361 19 20.5 16.5361 20.5 13.5C20.5 10.4639 18.0361 8 15 8ZM15 17C13.0711 17 11.5 15.4289 11.5 13.5C11.5 11.5711 13.0711 10 15 10C16.9289 10 18.5 11.5711 18.5 13.5C18.5 15.4289 16.9289 17 15 17Z" fill="white" stroke="#667B85"/>
</svg>
