<svg width="21" height="19" viewBox="0 0 21 19" fill="none" xmlns="http://www.w3.org/2000/svg">
<path fill-rule="evenodd" clip-rule="evenodd" d="M8.5 0.5H0.5V15.5H9.84176C9.65575 14.9742 9.54099 14.4147 9.50912 13.8333H8.5V12.1667H9.64885C9.75088 11.7175 9.90336 11.2874 10.1 10.8827V10.5H8.5V8.83333H10.1V7.16667H8.5V5.5H14.9V7.52966C15.0974 7.51005 15.2975 7.5 15.5 7.5C15.8407 7.5 16.1748 7.52843 16.5 7.58306V3.83333H8.5V0.5ZM15.5 8.5C15.8424 8.5 16.1769 8.53448 16.5 8.60016C18.7814 9.06384 20.5 11.0824 20.5 13.5C20.5 16.26 18.26 18.5 15.5 18.5C13.451 18.5 11.6885 17.2654 10.9165 15.5C10.6908 14.9839 10.5498 14.4225 10.511 13.8333C10.5037 13.7232 10.5 13.612 10.5 13.5C10.5 10.943 12.4225 8.83239 14.9 8.53568C15.0967 8.51212 15.297 8.5 15.5 8.5ZM14.9 9.54494C14.1242 9.66222 13.4206 10.0033 12.8574 10.5C12.3514 10.9463 11.9586 11.5184 11.7286 12.1667C11.5806 12.5839 11.5 13.0328 11.5 13.5C11.5 13.6122 11.5047 13.7234 11.5138 13.8333C11.5638 14.4364 11.7483 15.002 12.0371 15.5C12.7299 16.6946 14.023 17.5 15.5 17.5C17.705 17.5 19.5 15.705 19.5 13.5C19.5 11.6402 18.223 10.072 16.5 9.62663C16.1803 9.54398 15.8451 9.5 15.5 9.5C15.2961 9.5 15.0958 9.51534 14.9 9.54494ZM13.2668 15.5H14V15H12.9033C13.0073 15.1792 13.1293 15.3467 13.2668 15.5ZM13 13.8333V14H15V15.5V16H16V15.5V14H16.5H18V13H16.5H16V11H15V13H14.9H13V13.8333ZM13.3 12V11.4636C13.1489 11.6267 13.0156 11.8066 12.9033 12H13.3ZM11.7296 8.83333C12.1997 8.45295 12.7284 8.14213 13.3 7.91657V7.16667H11.7V8.83333H11.7296ZM3.7 13.8333H2.1V12.1667H3.7V13.8333ZM3.7 10.5H2.1V8.83333H3.7V10.5ZM3.7 7.16667H2.1V5.5H3.7V7.16667ZM3.7 3.83333H2.1V2.16667H3.7V3.83333ZM6.9 13.8333H5.3V12.1667H6.9V13.8333ZM6.9 10.5H5.3V8.83333H6.9V10.5ZM6.9 7.16667H5.3V5.5H6.9V7.16667ZM6.9 3.83333H5.3V2.16667H6.9V3.83333Z" fill="white"/>
</svg>
