<svg width="21" height="19" viewBox="0 0 21 19" fill="none" xmlns="http://www.w3.org/2000/svg">
<path d="M9.17526 8.68531C11.4326 8.68531 13.2626 6.85296 13.2626 4.59265C13.2626 2.33234 11.4326 0.5 9.17526 0.5C6.91787 0.5 5.08789 2.33234 5.08789 4.59265C5.08789 6.85296 6.91787 8.68531 9.17526 8.68531Z" stroke="white"/>
<path d="M9.53238 10.7416C6.74275 10.6393 1 12.0308 1 14.824V15.8472C1 16.4099 1.45983 16.8703 2.02184 16.8703H10.7484C8.22442 14.0464 9.49151 10.8439 9.53238 10.7416Z" stroke="white"/>
<path d="M16.5 11H15.5V13H13.5V14H15.5V16H16.5V14H18.5V13H16.5V11ZM16 8.5C13.24 8.5 11 10.74 11 13.5C11 16.26 13.24 18.5 16 18.5C18.76 18.5 21 16.26 21 13.5C21 10.74 18.76 8.5 16 8.5ZM16 17.5C13.795 17.5 12 15.705 12 13.5C12 11.295 13.795 9.5 16 9.5C18.205 9.5 20 11.295 20 13.5C20 15.705 18.205 17.5 16 17.5Z" fill="white"/>
</svg>
