<svg width="21" height="19" viewBox="0 0 21 19" fill="none" xmlns="http://www.w3.org/2000/svg">
<path fill-rule="evenodd" clip-rule="evenodd" d="M8.67526 1.25C6.69462 1.25 5.08789 2.85788 5.08789 4.84265C5.08789 6.82743 6.69462 8.43531 8.67526 8.43531C10.6559 8.43531 12.2626 6.82743 12.2626 4.84265C12.2626 2.85788 10.6559 1.25 8.67526 1.25ZM4.08789 4.84265C4.08789 2.30681 6.14112 0.25 8.67526 0.25C11.2094 0.25 13.2626 2.30681 13.2626 4.84265C13.2626 7.3785 11.2094 9.43531 8.67526 9.43531C6.14112 9.43531 4.08789 7.3785 4.08789 4.84265ZM3.54106 11.4801C5.38501 10.773 7.58508 10.4382 9.05071 10.4919L9.76001 10.5179L9.4967 11.1771C9.46652 11.2526 8.30368 14.1942 10.6212 16.7871L11.3659 17.6203H1.52184C0.683077 17.6203 0 16.9354 0 16.0972V15.074C0 14.187 0.459913 13.4512 1.10716 12.871C1.75153 12.2934 2.61814 11.834 3.54106 11.4801ZM1.77463 13.6157C1.25793 14.0788 1 14.5644 1 15.074V16.0972C1 16.3844 1.23658 16.6203 1.52184 16.6203H9.23331C7.9009 14.5919 8.11726 12.533 8.36088 11.494C7.06825 11.5452 5.36108 11.8532 3.8991 12.4138C3.03763 12.7441 2.2942 13.1499 1.77463 13.6157ZM15 13.25V11.25H16V13.25H18V14.25H16V16.25H15V14.25H13V13.25H15ZM10.5 13.75C10.5 10.99 12.74 8.75 15.5 8.75C18.26 8.75 20.5 10.99 20.5 13.75C20.5 16.51 18.26 18.75 15.5 18.75C12.74 18.75 10.5 16.51 10.5 13.75ZM11.5 13.75C11.5 15.955 13.295 17.75 15.5 17.75C17.705 17.75 19.5 15.955 19.5 13.75C19.5 11.545 17.705 9.75 15.5 9.75C13.295 9.75 11.5 11.545 11.5 13.75Z" fill="#05447A"/>
</svg>
