<svg width="24" height="24" viewBox="0 0 24 24" fill="none" xmlns="http://www.w3.org/2000/svg">
<path fill-rule="evenodd" clip-rule="evenodd" d="M21.7844 7.98359H23.4802C23.6186 7.9836 23.7513 8.03857 23.8492 8.13642C23.947 8.23428 24.002 8.36699 24.002 8.50537V23.4782C24.002 23.6166 23.947 23.7493 23.8492 23.8472C23.7513 23.945 23.6186 24 23.4802 24H21.2342C21.0959 24 20.9631 23.945 20.8653 23.8472C20.7674 23.7493 20.7125 23.6166 20.7125 23.4782V22.0036H3.28955V23.4782C3.28954 23.6166 3.23457 23.7493 3.13672 23.8472C3.03886 23.945 2.90615 24 2.76777 24H0.521783C0.383399 24 0.250686 23.945 0.152834 23.8472C0.0549825 23.7493 6.90435e-06 23.6166 0 23.4782V1.64271C0.000548927 1.20684 0.17408 0.789019 0.482475 0.481012C0.790871 0.173004 1.20891 0 1.64478 0C2.08064 0 2.49868 0.173004 2.80708 0.481012C3.11547 0.789019 3.289 1.20684 3.28955 1.64271V7.98359H5.20885C4.90729 7.88419 4.63272 7.71658 4.40649 7.49378C4.21043 7.30104 4.0544 7.07145 3.94737 6.81821C3.84034 6.56497 3.78441 6.29307 3.78281 6.01814C3.78121 5.74321 3.83397 5.47068 3.93804 5.21621C4.04212 4.96174 4.19547 4.73035 4.38927 4.53534C4.58307 4.34033 4.8135 4.18555 5.06732 4.07989C5.32114 3.97423 5.59334 3.91979 5.86827 3.91968C6.1432 3.91957 6.41544 3.9738 6.66935 4.07926C6.92325 4.18471 7.15381 4.33931 7.34776 4.53417C7.54289 4.72795 7.69715 4.95893 7.8014 5.21341C7.90564 5.46789 7.95776 5.74071 7.95466 6.0157C7.94868 6.45105 7.80816 6.87389 7.55236 7.22622C7.29656 7.57855 6.93802 7.8431 6.52592 7.9836H7.83523V7.42296C7.83583 6.69968 8.1233 6.00617 8.63459 5.49457C9.14587 4.98298 9.8392 4.69508 10.5625 4.69404H11.3551V4.17226C11.3551 4.03391 11.41 3.90123 11.5078 3.80337C11.6056 3.70552 11.7383 3.65052 11.8766 3.65047H19.922C20.9489 3.65047 21.7844 4.58678 21.7844 5.7376V7.98359ZM5.12515 5.2733C4.9359 5.46599 4.82864 5.72448 4.82585 5.99455C4.8248 6.13497 4.85189 6.27416 4.90553 6.40393C4.95917 6.5337 5.03826 6.6514 5.13815 6.75009C5.23645 6.84808 5.35368 6.92502 5.48269 6.97623C5.6117 7.02743 5.74978 7.05183 5.88853 7.04793C6.16074 7.04059 6.4195 6.92794 6.61034 6.73368C6.80118 6.53942 6.90921 6.2787 6.91171 6.0064C6.91318 5.87012 6.88727 5.73494 6.83553 5.60885C6.78379 5.48277 6.70727 5.36836 6.6105 5.27239C6.51088 5.17284 6.39249 5.09405 6.2622 5.04058C6.13191 4.98712 5.9923 4.96004 5.85147 4.96093L5.8409 4.96105C5.57092 4.9687 5.3144 5.08061 5.12515 5.2733ZM19.922 4.69404H12.3981V7.82474H20.7415V5.7376C20.7415 5.16219 20.3738 4.69404 19.922 4.69404ZM9.37183 6.232C9.05607 6.54796 8.87853 6.97627 8.87816 7.42296V7.82474H11.2248V5.7376H10.5625C10.1158 5.73825 9.68759 5.91605 9.37183 6.232ZM21.756 22.9564H22.9584V9.02715H2.76777C2.62938 9.02715 2.49667 8.97217 2.39882 8.87432C2.30097 8.77647 2.24599 8.64376 2.24599 8.50537V1.64271C2.24565 1.48347 2.18217 1.33087 2.06945 1.21839C1.95674 1.10592 1.80401 1.04275 1.64478 1.04275C1.48554 1.04275 1.33281 1.10592 1.2201 1.21839C1.10739 1.33087 1.0439 1.48347 1.04357 1.64271V22.9564H2.24599V21.4818C2.24599 21.3434 2.30097 21.2107 2.39882 21.1128C2.49667 21.015 2.62938 20.96 2.76777 20.96H21.2342C21.3726 20.96 21.5053 21.015 21.6032 21.1128C21.701 21.2107 21.756 21.3434 21.756 21.4818V22.9564ZM2.24598 19.2359V10.7512C2.24599 10.6128 2.30097 10.4801 2.39882 10.3823C2.49667 10.2844 2.62938 10.2295 2.76777 10.2294H21.2342C21.3726 10.2295 21.5053 10.2844 21.6032 10.3823C21.701 10.4801 21.756 10.6128 21.756 10.7512V16.0836C21.7743 16.1996 21.7838 16.3168 21.7844 16.4342V19.0431C21.7837 19.0984 21.7741 19.1533 21.756 19.2056V19.2359C21.756 19.3743 21.701 19.507 21.6032 19.6049C21.5053 19.7027 21.3726 19.7577 21.2342 19.7577H2.76777C2.62938 19.7577 2.49667 19.7027 2.39882 19.6049C2.30097 19.507 2.24599 19.3743 2.24598 19.2359ZM5.85147 15.6575L5.8409 15.6576C5.63613 15.6634 5.43758 15.7292 5.26995 15.847C5.10232 15.9647 4.97301 16.1291 4.89811 16.3198C4.82322 16.5105 4.80604 16.7189 4.84872 16.9193C4.8914 17.1197 4.99205 17.303 5.13814 17.4466C5.2364 17.5447 5.35362 17.6217 5.48264 17.6729C5.61166 17.7241 5.74977 17.7485 5.88853 17.7445C6.16074 17.7371 6.4195 17.6245 6.61034 17.4302C6.80117 17.236 6.90921 16.9752 6.91171 16.7029C6.91317 16.5667 6.88727 16.4315 6.83553 16.3054C6.78379 16.1793 6.70727 16.0649 6.6105 15.9689C6.51088 15.8694 6.39249 15.7906 6.2622 15.7371C6.13191 15.6837 5.9923 15.6566 5.85147 15.6575ZM8.87816 18.1195V18.5213H11.2248V16.4342H10.5625C10.1158 16.4348 9.68759 16.6126 9.37183 16.9285C9.05607 17.2445 8.87852 17.6728 8.87816 18.1195ZM12.3981 18.5213H20.7125L20.7125 16.1735C20.6903 15.9722 20.5997 15.7847 20.4558 15.6422C20.3119 15.4997 20.1235 15.4108 19.922 15.3906H12.3981V18.5213ZM20.7125 11.273H3.28955V18.7142H5.32168C4.97639 18.6218 4.66102 18.4413 4.40649 18.1903C4.1135 17.902 3.91211 17.5337 3.82756 17.1314C3.74301 16.7292 3.77905 16.3109 3.93118 15.929C4.08331 15.5472 4.34475 15.2187 4.68275 14.9848C5.02074 14.7509 5.42026 14.6219 5.83123 14.614C6.39834 14.6113 6.94352 14.833 7.34776 15.2307C7.54289 15.4245 7.69715 15.6555 7.8014 15.91C7.90564 16.1644 7.95776 16.4373 7.95466 16.7123C7.94828 17.1683 7.79413 17.6099 7.51537 17.9709C7.2366 18.3319 6.84826 18.5927 6.40865 18.7142H7.83523V18.1195C7.83583 17.3962 8.1233 16.7027 8.63459 16.1911C9.14587 15.6795 9.8392 15.3916 10.5625 15.3906H11.3551V14.8688C11.3551 14.7305 11.41 14.5978 11.5078 14.4999C11.6056 14.4021 11.7382 14.3471 11.8766 14.347H19.922C20.1979 14.348 20.4693 14.4167 20.7125 14.5471V11.273Z" fill="#777777"/>
</svg>
