<svg width="126" height="126" viewBox="0 0 126 126" fill="none" xmlns="http://www.w3.org/2000/svg">
<path d="M31.1494 45.3216C33.8766 42.5797 47.1213 51.4498 60.7322 65.1342C74.3431 78.8186 83.1656 92.1349 80.4384 94.8768" stroke="#121331" stroke-width="6" stroke-linecap="round" stroke-linejoin="round"/>
<path d="M105.59 37.6863C101.827 41.2744 95.1071 35.382 91.4897 39.4351C87.7846 43.5856 94.7409 49.8618 91.0359 54.0127C87.3312 58.1631 80.3749 51.8861 76.6702 56.0366C76.5465 56.1751 76.4349 56.3158 76.3348 56.4585M46.7535 68.8553C56.1505 49.9782 44.0582 3.05048 9.87216 12.5253C9.71127 12.5699 9.55076 12.6134 9.39062 12.6565L46.7535 68.8553ZM56.5592 81.2796C57.1985 80.7832 57.8439 80.2947 58.4952 79.8142C70.3196 71.1032 100.352 71.4492 103.906 95.4672L56.5592 81.2796ZM74.5384 7.02734C74.3107 12.2365 65.4059 12.6909 65.604 18.1331C65.8066 23.7062 75.1471 23.3629 75.3497 28.936C75.5523 34.5091 66.2115 34.8521 66.4141 40.4252C66.421 40.6113 66.4381 40.7903 66.4646 40.9631L74.5384 7.02734Z" stroke="#08A88A" stroke-width="6" stroke-linecap="round" stroke-linejoin="round"/>
<path d="M103.218 115.818L97.4133 119.36M80.4381 94.8765C77.7109 97.6185 64.4666 88.7479 50.8557 75.0635C37.2448 61.3791 28.422 48.0633 31.1491 45.3214L30.66 46.6299L3.354 119.378C2.5465 121.53 4.63923 123.634 6.77901 122.822L79.1365 95.3683L80.4381 94.8765V94.8765ZM49.0301 7.66893L51.7918 3L49.0301 7.66893Z" stroke="#121331" stroke-width="6" stroke-linecap="round" stroke-linejoin="round"/>
<path d="M3 69.1457L6.82041 65.3047M120.238 92.6601L123 87.9912L120.238 92.6601Z" stroke="#08A88A" stroke-width="6" stroke-linecap="round" stroke-linejoin="round"/>
<path d="M109.717 12.8254L105.896 8.98438" stroke="#121331" stroke-width="6" stroke-linecap="round" stroke-linejoin="round"/>
<path d="M62.5913 119.372L60.6416 114.307" stroke="#08A88A" stroke-width="6" stroke-linecap="round" stroke-linejoin="round"/>
<path d="M114.131 61.9274L112.667 56.6992M13.5537 32.5469L17.6489 36.0896L13.5537 32.5469Z" stroke="#121331" stroke-width="6" stroke-linecap="round" stroke-linejoin="round"/>
</svg>
