<svg width="41" height="24" viewBox="0 0 41 24" fill="none" xmlns="http://www.w3.org/2000/svg">
<path d="M11.8165 11.0415H15.3272C15.5062 11.0415 15.6621 10.9196 15.7054 10.746L16.4855 7.62541H16.4857C16.5146 7.50896 16.4885 7.38543 16.4145 7.29102C16.3407 7.19633 16.2273 7.1411 16.1073 7.14083H12.5968C12.4178 7.1411 12.2616 7.263 12.2184 7.43659L11.4383 10.5572C11.4092 10.6736 11.4353 10.7969 11.5093 10.8916C11.5833 10.9863 11.6965 11.0415 11.8165 11.0415H11.8165ZM12.9013 7.9209H15.6075L15.0225 10.2614H12.3163L12.9013 7.9209ZM25.0789 11.0415H28.5894C28.7684 11.0415 28.9246 10.9196 28.9678 10.746L29.7479 7.62541C29.777 7.50896 29.7506 7.38543 29.6769 7.29102C29.6029 7.19633 29.4897 7.1411 29.3694 7.14083H25.859C25.68 7.1411 25.5241 7.263 25.4805 7.43659L24.7005 10.5572C24.6713 10.6736 24.6977 10.7969 24.7715 10.8916C24.8455 10.9863 24.9589 11.0415 25.0789 11.0415ZM26.1637 7.9209H28.8699L28.2849 10.2614H25.5785L26.1637 7.9209ZM35.8443 6.66629L33.1767 4.66561C33.2075 4.64793 33.2355 4.62589 33.2597 4.60004C33.4273 4.39924 33.507 4.13967 33.4815 3.87954C33.4559 3.61941 33.3266 3.38053 33.1234 3.21619C32.9199 3.05212 32.6589 2.97648 32.3993 3.00641C32.1395 3.03662 31.9028 3.16939 31.742 3.37564C31.7273 3.39768 31.715 3.42135 31.7052 3.44611C31.4059 3.18245 31.0188 3.04043 30.6196 3.04805C30.2207 3.05567 29.8393 3.21239 29.5503 3.48747L28.6502 4.38698C28.4981 4.53935 28.4981 4.78613 28.6502 4.9385L30.8095 7.09834H30.8098C30.9621 7.25071 31.2089 7.25071 31.3613 7.09834L32.2611 6.19799C32.5062 5.9512 32.6608 5.62878 32.7 5.28294L35.0641 7.05613L31.7876 11.4248C31.7876 11.4272 31.7876 11.4294 31.7846 11.4313L24.2982 11.4316C24.2993 11.0245 24.1932 10.6243 23.9905 10.2714C23.7878 9.91825 23.4958 9.62494 23.144 9.42031C23.6713 8.87287 23.9464 8.1301 23.9031 7.37094C23.8599 6.61185 23.5021 5.90521 22.916 5.42118C22.3296 4.93687 21.568 4.71921 20.8147 4.82014C20.061 4.92109 19.3838 5.33167 18.9457 5.95314C18.5074 6.57459 18.3482 7.35033 18.5063 8.09417C18.6644 8.8378 19.1255 9.48182 19.7783 9.87147H18.4473C18.1368 9.87147 17.8392 9.99472 17.6196 10.214C17.4003 10.4336 17.277 10.7313 17.277 11.0414V11.4316H11.0359C11.037 11.0246 10.9308 10.6243 10.7284 10.2715C10.5257 9.91829 10.2337 9.62499 9.88169 9.42036C10.4093 8.87292 10.6843 8.13015 10.6411 7.37099C10.5978 6.61183 10.24 5.90526 9.65364 5.42123C9.06756 4.93692 8.30597 4.71926 7.55231 4.82019C6.79893 4.92114 6.12141 5.33172 5.68335 5.95319C5.24529 6.57463 5.08612 7.35038 5.2442 8.09422C5.40228 8.83785 5.8632 9.48187 6.51623 9.87151H5.18493C4.87475 9.87151 4.57708 9.99477 4.35751 10.2141C4.13821 10.4336 4.01467 10.7313 4.01467 11.0415V17.6728C4.01467 17.7762 4.05576 17.8752 4.12895 17.9484C4.20214 18.0216 4.30146 18.0627 4.40484 18.0627H5.96496V20.0832L4.32669 20.4108C4.22248 20.4282 4.12943 20.487 4.0693 20.5738C4.00917 20.6608 3.98685 20.7686 4.00753 20.8723C4.02821 20.9759 4.09025 21.0668 4.17922 21.1239C4.26819 21.1811 4.37675 21.1998 4.4796 21.1754L5.96191 20.8788V21.5734C5.96191 21.7886 6.13659 21.9633 6.35209 21.9633C6.5673 21.9633 6.74199 21.7887 6.74199 21.5734V20.8791L8.2243 21.1756V21.1754C8.25096 21.1811 8.27817 21.1835 8.30538 21.1833C8.50591 21.1835 8.67379 21.0317 8.69392 20.8323C8.71406 20.6331 8.57992 20.4508 8.38347 20.4108L6.74521 20.0837V18.0627H9.47558V20.793C9.47558 20.8967 9.51667 20.9957 9.58986 21.0689C9.66305 21.1421 9.76209 21.1832 9.86548 21.1832H11.8158C11.9195 21.1832 12.0185 21.1421 12.0917 21.0689C12.1649 20.9957 12.206 20.8967 12.206 20.793V17.6727C12.2046 17.3277 12.0892 16.9931 11.8773 16.7207C11.6656 16.4483 11.3698 16.2541 11.0357 16.1678V12.2117H17.2769V17.6727C17.2769 17.7761 17.318 17.8751 17.3911 17.9483C17.4643 18.0215 17.5634 18.0626 17.6668 18.0626H19.2269V20.0831L17.5886 20.4107H17.5889C17.3843 20.4592 17.2548 20.6608 17.2959 20.867C17.3372 21.073 17.5342 21.2096 17.7418 21.1753L19.2241 20.8787L19.2238 21.5734C19.2238 21.7886 19.3985 21.9633 19.614 21.9633C19.8295 21.9633 20.0042 21.7886 20.0042 21.5734V20.879L21.4865 21.1756L21.4862 21.1753C21.5129 21.181 21.5401 21.1834 21.5673 21.1832C21.7678 21.1834 21.9357 21.0316 21.9558 20.8322C21.976 20.633 21.8418 20.4507 21.6454 20.4107L20.0071 20.0837V18.0626H22.7375V20.793C22.7375 20.8966 22.7786 20.9957 22.8518 21.0689C22.925 21.142 23.0243 21.1831 23.1277 21.1831H25.078C25.1814 21.1831 25.2807 21.142 25.3539 21.0689C25.4268 20.9957 25.4679 20.8966 25.4679 20.793V17.6727C25.4668 17.3277 25.3512 16.993 25.1395 16.7206C24.9278 16.4483 24.6318 16.254 24.2979 16.1677V12.2116H34.4396C34.6551 12.2116 34.8297 12.0369 34.8297 11.8217C34.8297 11.6062 34.6551 11.4315 34.4396 11.4315H32.7573L35.9219 7.21229C36.0512 7.03978 36.0164 6.79545 35.8439 6.66621L35.8443 6.66629ZM32.6236 3.83603C32.7066 3.90351 32.7196 4.02541 32.6527 4.10894C32.6184 4.15301 32.5937 4.20362 32.5803 4.25804C32.5439 4.25096 32.5069 4.24906 32.4699 4.2526C32.41 4.15791 32.3401 4.0703 32.2612 3.99085L32.2318 3.96146H32.2321C32.277 3.93725 32.3167 3.90405 32.3491 3.86433C32.3817 3.82406 32.4288 3.79849 32.4805 3.79332C32.5319 3.78788 32.5833 3.80311 32.6236 3.83604V3.83603ZM31.7097 5.64648L31.0855 6.27065L29.4777 4.66233L30.1019 4.03817V4.03844C30.4105 3.7435 30.8967 3.7435 31.2052 4.03844L31.7097 4.54343C32.0141 4.84817 32.0141 5.34202 31.7097 5.64648L31.7097 5.64648ZM10.2562 16.112H8.69606V11.0411C8.69579 10.7345 8.57471 10.4404 8.35922 10.2221C8.52765 10.1944 8.6928 10.1511 8.85278 10.0926L8.87591 10.0839H8.87564C8.97876 10.0455 9.07943 10.0009 9.17738 9.95032C9.49137 10.0502 9.76536 10.2477 9.95939 10.5141C10.1534 10.7805 10.2573 11.1018 10.2562 11.4313L10.2562 16.112ZM7.44772 9.41812C7.40881 9.40832 7.36963 9.39445 7.33072 9.3822C7.2159 9.34602 7.10462 9.29922 6.99851 9.24262L6.98653 9.23609H6.98626C7.67301 8.90251 8.15381 8.25466 8.27347 7.50073C8.82091 7.41475 9.31989 7.13694 9.68125 6.71712C9.90273 7.18864 9.9245 7.72982 9.74111 8.21768C9.558 8.70526 9.18551 9.09846 8.70828 9.30763C8.66937 9.32477 8.63019 9.33756 8.59128 9.35198V9.35225C8.52108 9.37864 8.44898 9.40095 8.37606 9.41891C8.33171 9.42979 8.28682 9.43986 8.24138 9.44775C8.15241 9.46299 8.06262 9.47197 7.97229 9.47469C7.91651 9.47469 7.86073 9.47469 7.80496 9.47006C7.7421 9.46653 7.68006 9.46081 7.61885 9.45129C7.55763 9.44204 7.5062 9.43252 7.44771 9.4181L7.44772 9.41812ZM4.79543 11.0411C4.79543 10.8259 4.96984 10.6512 5.18533 10.6512H7.52585C7.62925 10.6512 7.72856 10.6923 7.80174 10.7655C7.87467 10.8387 7.91575 10.9377 7.91575 11.0411V16.112H4.79545L4.79543 11.0411ZM4.79543 17.2823V16.8921H9.47612V17.2823H4.79543ZM11.4264 17.6725V20.4028H10.2562V16.8921H10.6464C10.8531 16.8921 11.0515 16.9743 11.1979 17.1207C11.3443 17.2671 11.4264 17.4654 11.4264 17.6725L11.4264 17.6725ZM23.5184 16.1123L21.958 16.1121V11.0412C21.9577 10.7345 21.8369 10.4404 21.6214 10.2222C21.7896 10.1944 21.9547 10.1512 22.1147 10.0927L22.1379 10.084C22.241 10.0456 22.3417 10.001 22.4393 9.95037C22.7533 10.0502 23.0273 10.2478 23.2215 10.5141C23.4155 10.7805 23.5195 11.1018 23.5181 11.4313L23.5184 16.1123ZM20.7097 9.41823C20.6708 9.40843 20.6316 9.39456 20.5927 9.38231C20.4781 9.34613 20.3671 9.29933 20.2607 9.24273L20.2488 9.2362C20.9355 8.90262 21.416 8.25478 21.536 7.50084C22.0834 7.41486 22.5824 7.13706 22.9437 6.71723C23.1652 7.18848 23.187 7.72938 23.0039 8.21723C22.821 8.70481 22.4488 9.09801 21.9722 9.30746C21.9332 9.3246 21.8941 9.33793 21.8552 9.35235C21.785 9.37875 21.7131 9.40106 21.6405 9.41902C21.5956 9.4299 21.5507 9.43997 21.5055 9.44786C21.4166 9.46309 21.3265 9.47207 21.2364 9.47479C21.1807 9.47479 21.1249 9.47479 21.0691 9.47017C21.0063 9.46663 20.9439 9.46092 20.883 9.45139C20.822 9.44214 20.7684 9.43262 20.7097 9.4182L20.7097 9.41823ZM18.0574 11.0412C18.0574 10.826 18.2321 10.6513 18.4475 10.6513H20.7881H20.7878C20.8912 10.6513 20.9905 10.6924 21.0637 10.7656C21.1369 10.8388 21.178 10.9378 21.178 11.0412V16.1121H18.0574L18.0574 11.0412ZM18.0574 17.2824V16.8922H22.7381V17.2824H18.0574ZM24.6884 17.6726V20.4029H23.5181V16.8922H23.9083C24.1151 16.8922 24.3137 16.9744 24.4598 17.1208C24.6062 17.2672 24.6884 17.4655 24.6884 17.6726L24.6884 17.6726ZM34.44 12.6017H29.3691C29.1539 12.6017 28.9792 12.7764 28.9792 12.9916V20.7929C28.9792 20.8965 29.0203 20.9956 29.0934 21.0687C29.1666 21.1419 29.2657 21.183 29.3691 21.183H34.44C34.5434 21.183 34.6427 21.1419 34.7159 21.0687C34.789 20.9955 34.8301 20.8965 34.8301 20.7929V12.9916C34.8301 12.8882 34.789 12.7892 34.7159 12.716C34.6427 12.6428 34.5433 12.6017 34.44 12.6017L34.44 12.6017ZM29.7593 15.3321H34.0501V16.5023H29.7593V15.3321ZM34.0501 13.3817V14.552H29.7593V13.3817H34.0501ZM29.7593 20.4029V17.2823H34.0501V20.4029H29.7593Z" fill="#696978"/>
</svg>
