<svg width="21" height="21" viewBox="0 0 21 21" fill="none" xmlns="http://www.w3.org/2000/svg">
<path fill-rule="evenodd" clip-rule="evenodd" d="M2.35294 1.64706H11.7647C12.1546 1.64706 12.4706 1.96309 12.4706 2.35294V11.7647C12.4706 12.1546 12.1546 12.4706 11.7647 12.4706H2.35294C1.96309 12.4706 1.64706 12.1546 1.64706 11.7647V2.35294C1.64706 1.96309 1.96309 1.64706 2.35294 1.64706ZM0 2.35294C0 1.05345 1.05345 0 2.35294 0H11.7647C13.0642 0 14.1176 1.05345 14.1176 2.35294V11.7647C14.1176 13.0642 13.0642 14.1176 11.7647 14.1176H2.35294C1.05345 14.1176 0 13.0642 0 11.7647V2.35294ZM3.52941 4.11765H10.5882V5.29412H3.52941V4.11765ZM3.52941 7.64706V6.47059H7.94118H10.5882V7.64706H3.52941ZM10.5882 8.82353H3.52941V10H10.5882V8.82353Z" fill="#07B871"/>
<path d="M12.8154 15.7065L13.1689 16.06L13.5225 15.7065L16.9966 12.2324L17.3629 12.5987L13.1689 16.7926L10.8725 14.4962L11.2388 14.1299L12.8154 15.7065ZM17.0818 12.1472C17.0817 12.1473 17.0816 12.1474 17.0815 12.1475L17.0818 12.1472L16.9966 12.062L17.0818 12.1472ZM16.9113 12.1472L16.9114 12.1472C16.9114 12.1472 16.9114 12.1472 16.9113 12.1472ZM10.7873 14.411C10.7874 14.4111 10.7874 14.4111 10.7875 14.4112L10.7873 14.411ZM10.7875 14.5813C10.7874 14.5813 10.7874 14.5814 10.7873 14.5814L10.7875 14.5813ZM14.1177 20.4991C17.6426 20.4991 20.5001 17.6416 20.5001 14.1167C20.5001 10.5918 17.6426 7.73438 14.1177 7.73438C10.5928 7.73438 7.73535 10.5918 7.73535 14.1167C7.73535 17.6416 10.5928 20.4991 14.1177 20.4991Z" fill="#07B871" stroke="white"/>
</svg>
