<svg width="19" height="19" viewBox="0 0 19 19" fill="none" xmlns="http://www.w3.org/2000/svg">
<path fill-rule="evenodd" clip-rule="evenodd" d="M8 0.5H0V15.5H8.23996C7.33814 14.6502 6.71798 13.5064 6.55017 12.2417C6.27607 10.1831 7.14759 8.31211 8.61539 7.16667H8V5.5H14.4V6.54318C15.0002 6.83619 15.5424 7.23821 16 7.72174V3.83333H8V0.5ZM3.2 13.8333H1.6V12.1667H3.2V13.8333ZM3.2 10.5H1.6V8.83333H3.2V10.5ZM3.2 7.16667H1.6V5.5H3.2V7.16667ZM3.2 3.83333H1.6V2.16667H3.2V3.83333ZM6.4 13.8333H4.8V12.1667H6.4V13.8333ZM6.4 10.5H4.8V8.83333H6.4V10.5ZM6.4 7.16667H4.8V5.5H6.4V7.16667ZM6.4 3.83333H4.8V2.16667H6.4V3.83333ZM12.8 10.5H11.2V12.1667H12.8V10.5ZM16.9173 10.4987C17.1929 11.8129 16.9048 13.0271 16.316 14.0284L18.6336 16.369C19.1221 16.8572 19.1221 17.6457 18.6336 18.1339C18.145 18.622 17.3558 18.622 16.8672 18.1339L14.5371 15.8058C13.5349 16.3941 12.3197 16.6819 11.0044 16.4066C8.94985 15.981 7.32128 14.2537 7.04568 12.1759C6.60722 8.88401 9.38831 6.11781 12.683 6.54338C14.7626 6.80623 16.4914 8.44593 16.9173 10.4987ZM9.51359 11.5C9.51359 12.8769 10.6411 14.0034 12.0191 14.0034C13.3971 14.0034 14.5246 12.8769 14.5246 11.5C14.5246 10.1232 13.3971 8.99666 12.0191 8.99666C10.6411 8.99666 9.51359 10.1232 9.51359 11.5Z" fill="white"/>
</svg>
