<svg width="16" height="15" viewBox="0 0 16 15" fill="none" xmlns="http://www.w3.org/2000/svg">
<g clip-path="url(#clip0_16800_19343)">
<path d="M11.3333 2H3.33333C2.59333 2 2 2.6 2 3.33333V12.6667C2 13.4 2.59333 14 3.33333 14H12.6667C13.4 14 14 13.4 14 12.6667V4.66667L11.3333 2ZM8 12.6667C6.89333 12.6667 6 11.7733 6 10.6667C6 9.56 6.89333 8.66667 8 8.66667C9.10667 8.66667 10 9.56 10 10.6667C10 11.7733 9.10667 12.6667 8 12.6667ZM10 6H3.33333V3.33333H10V6Z" fill="#434546"/>
</g>
<defs>
<clipPath id="clip0_16800_19343">
<rect width="16" height="16" fill="white"/>
</clipPath>
</defs>
</svg>
