<svg width="45" height="24" viewBox="0 0 45 24" fill="none" xmlns="http://www.w3.org/2000/svg">
<mask id="path-1-inside-1_13749_24632" fill="white">
<path d="M44.3684 22.7368H42.4737V5.68421C42.4831 5.54607 42.4458 5.40877 42.368 5.29428C42.2901 5.17978 42.1761 5.0947 42.0442 5.05263L37.4211 3.12V22.7368H36.1579V0.631579C36.1579 0.464074 36.0914 0.303429 35.9729 0.184985C35.8545 0.0665413 35.6938 0 35.5263 0H24.1579C23.9904 0 23.8297 0.0665413 23.7113 0.184985C23.5929 0.303429 23.5263 0.464074 23.5263 0.631579V22.7368H21.6316C21.4641 22.7368 21.3034 22.8034 21.185 22.9218C21.0665 23.0403 21 23.2009 21 23.3684C21 23.5359 21.0665 23.6966 21.185 23.815C21.3034 23.9335 21.4641 24 21.6316 24H44.3684C44.5359 24 44.6966 23.9335 44.815 23.815C44.9335 23.6966 45 23.5359 45 23.3684C45 23.2009 44.9335 23.0403 44.815 22.9218C44.6966 22.8034 44.5359 22.7368 44.3684 22.7368ZM39.3158 7.57895H40.5789C40.7465 7.57895 40.9071 7.64549 41.0255 7.76393C41.144 7.88238 41.2105 8.04302 41.2105 8.21053C41.2073 8.37702 41.1397 8.53579 41.022 8.65354C40.9042 8.77129 40.7454 8.83887 40.5789 8.8421H39.3158C39.1493 8.83887 38.9905 8.77129 38.8728 8.65354C38.755 8.53579 38.6874 8.37702 38.6842 8.21053C38.6842 8.04302 38.7507 7.88238 38.8692 7.76393C38.9876 7.64549 39.1483 7.57895 39.3158 7.57895ZM39.3158 11.3684H40.5789C40.7465 11.3684 40.9071 11.435 41.0255 11.5534C41.144 11.6718 41.2105 11.8325 41.2105 12C41.2105 12.1675 41.144 12.3281 41.0255 12.4466C40.9071 12.565 40.7465 12.6316 40.5789 12.6316H39.3158C39.1483 12.6316 38.9876 12.565 38.8692 12.4466C38.7507 12.3281 38.6842 12.1675 38.6842 12C38.6842 11.8325 38.7507 11.6718 38.8692 11.5534C38.9876 11.435 39.1483 11.3684 39.3158 11.3684ZM39.3158 15.1579H40.5789C40.7454 15.1611 40.9042 15.2287 41.022 15.3465C41.1397 15.4642 41.2073 15.623 41.2105 15.7895C41.2105 15.957 41.144 16.1176 41.0255 16.2361C40.9071 16.3545 40.7465 16.4211 40.5789 16.4211H39.3158C39.1483 16.4211 38.9876 16.3545 38.8692 16.2361C38.7507 16.1176 38.6842 15.957 38.6842 15.7895C38.6874 15.623 38.755 15.4642 38.8728 15.3465C38.9905 15.2287 39.1493 15.1611 39.3158 15.1579ZM39.3158 18.9474H40.5789C40.7465 18.9474 40.9071 19.0139 41.0255 19.1324C41.144 19.2508 41.2105 19.4114 41.2105 19.5789C41.2105 19.7465 41.144 19.9071 41.0255 20.0255C40.9071 20.144 40.7465 20.2105 40.5789 20.2105H39.3158C39.1483 20.2105 38.9876 20.144 38.8692 20.0255C38.7507 19.9071 38.6842 19.7465 38.6842 19.5789C38.6842 19.4114 38.7507 19.2508 38.8692 19.1324C38.9876 19.0139 39.1483 18.9474 39.3158 18.9474ZM31.1053 3.78947H32.3684C32.5359 3.78947 32.6966 3.85601 32.815 3.97446C32.9335 4.0929 33 4.25355 33 4.42105C33 4.58856 32.9335 4.7492 32.815 4.86765C32.6966 4.98609 32.5359 5.05263 32.3684 5.05263H31.1053C30.9378 5.05263 30.7771 4.98609 30.6587 4.86765C30.5402 4.7492 30.4737 4.58856 30.4737 4.42105C30.4737 4.25355 30.5402 4.0929 30.6587 3.97446C30.7771 3.85601 30.9378 3.78947 31.1053 3.78947ZM31.1053 7.57895H32.3684C32.5359 7.57895 32.6966 7.64549 32.815 7.76393C32.9335 7.88238 33 8.04302 33 8.21053C33 8.37803 32.9335 8.53868 32.815 8.65712C32.6966 8.77556 32.5359 8.8421 32.3684 8.8421H31.1053C30.9378 8.8421 30.7771 8.77556 30.6587 8.65712C30.5402 8.53868 30.4737 8.37803 30.4737 8.21053C30.4737 8.04302 30.5402 7.88238 30.6587 7.76393C30.7771 7.64549 30.9378 7.57895 31.1053 7.57895ZM31.1053 11.3684H32.3684C32.5359 11.3684 32.6966 11.435 32.815 11.5534C32.9335 11.6718 33 11.8325 33 12C33 12.1675 32.9335 12.3281 32.815 12.4466C32.6966 12.565 32.5359 12.6316 32.3684 12.6316H31.1053C30.9378 12.6316 30.7771 12.565 30.6587 12.4466C30.5402 12.3281 30.4737 12.1675 30.4737 12C30.4737 11.8325 30.5402 11.6718 30.6587 11.5534C30.7771 11.435 30.9378 11.3684 31.1053 11.3684ZM31.1053 15.1579H32.3684C32.5359 15.1579 32.6966 15.2244 32.815 15.3429C32.9335 15.4613 33 15.622 33 15.7895C33 15.957 32.9335 16.1176 32.815 16.2361C32.6966 16.3545 32.5359 16.4211 32.3684 16.4211H31.1053C30.9378 16.4211 30.7771 16.3545 30.6587 16.2361C30.5402 16.1176 30.4737 15.957 30.4737 15.7895C30.4737 15.622 30.5402 15.4613 30.6587 15.3429C30.7771 15.2244 30.9378 15.1579 31.1053 15.1579ZM27.24 3.78947H28.5789C28.7465 3.78947 28.9071 3.85601 29.0255 3.97446C29.144 4.0929 29.2105 4.25355 29.2105 4.42105C29.2105 4.58856 29.144 4.7492 29.0255 4.86765C28.9071 4.98609 28.7465 5.05263 28.5789 5.05263H27.3158C27.1483 5.05263 26.9876 4.98609 26.8692 4.86765C26.7508 4.7492 26.6842 4.58856 26.6842 4.42105C26.6842 4.25355 26.7508 4.0929 26.8692 3.97446C26.9876 3.85601 27.1483 3.78947 27.3158 3.78947H27.24ZM27.24 7.57895H28.5789C28.7465 7.57895 28.9071 7.64549 29.0255 7.76393C29.144 7.88238 29.2105 8.04302 29.2105 8.21053C29.2105 8.37803 29.144 8.53868 29.0255 8.65712C28.9071 8.77556 28.7465 8.8421 28.5789 8.8421H27.3158C27.1483 8.8421 26.9876 8.77556 26.8692 8.65712C26.7508 8.53868 26.6842 8.37803 26.6842 8.21053C26.6842 8.04302 26.7508 7.88238 26.8692 7.76393C26.9876 7.64549 27.1483 7.57895 27.3158 7.57895H27.24ZM27.24 11.3684H28.5789C28.7465 11.3684 28.9071 11.435 29.0255 11.5534C29.144 11.6718 29.2105 11.8325 29.2105 12C29.2105 12.1675 29.144 12.3281 29.0255 12.4466C28.9071 12.565 28.7465 12.6316 28.5789 12.6316H27.3158C27.1483 12.6316 26.9876 12.565 26.8692 12.4466C26.7508 12.3281 26.6842 12.1675 26.6842 12C26.6842 11.8325 26.7508 11.6718 26.8692 11.5534C26.9876 11.435 27.1483 11.3684 27.3158 11.3684H27.24ZM27.24 15.1579H28.5789C28.7465 15.1579 28.9071 15.2244 29.0255 15.3429C29.144 15.4613 29.2105 15.622 29.2105 15.7895C29.2105 15.957 29.144 16.1176 29.0255 16.2361C28.9071 16.3545 28.7465 16.4211 28.5789 16.4211H27.3158C27.1483 16.4211 26.9876 16.3545 26.8692 16.2361C26.7508 16.1176 26.6842 15.957 26.6842 15.7895C26.6842 15.622 26.7508 15.4613 26.8692 15.3429C26.9876 15.2244 27.1483 15.1579 27.3158 15.1579H27.24ZM30.4737 22.7368V20.2105H29.2105V22.7368H27.9474V19.5411C27.957 19.3802 28.0278 19.2291 28.1452 19.1188C28.2626 19.0084 28.4178 18.9471 28.5789 18.9474H31.1053C31.2728 18.9474 31.4334 19.0139 31.5519 19.1324C31.6703 19.2508 31.7368 19.4114 31.7368 19.5789V22.7368H30.4737Z"/>
</mask>
<path d="M44.3684 22.7368H42.4737V5.68421C42.4831 5.54607 42.4458 5.40877 42.368 5.29428C42.2901 5.17978 42.1761 5.0947 42.0442 5.05263L37.4211 3.12V22.7368H36.1579V0.631579C36.1579 0.464074 36.0914 0.303429 35.9729 0.184985C35.8545 0.0665413 35.6938 0 35.5263 0H24.1579C23.9904 0 23.8297 0.0665413 23.7113 0.184985C23.5929 0.303429 23.5263 0.464074 23.5263 0.631579V22.7368H21.6316C21.4641 22.7368 21.3034 22.8034 21.185 22.9218C21.0665 23.0403 21 23.2009 21 23.3684C21 23.5359 21.0665 23.6966 21.185 23.815C21.3034 23.9335 21.4641 24 21.6316 24H44.3684C44.5359 24 44.6966 23.9335 44.815 23.815C44.9335 23.6966 45 23.5359 45 23.3684C45 23.2009 44.9335 23.0403 44.815 22.9218C44.6966 22.8034 44.5359 22.7368 44.3684 22.7368ZM39.3158 7.57895H40.5789C40.7465 7.57895 40.9071 7.64549 41.0255 7.76393C41.144 7.88238 41.2105 8.04302 41.2105 8.21053C41.2073 8.37702 41.1397 8.53579 41.022 8.65354C40.9042 8.77129 40.7454 8.83887 40.5789 8.8421H39.3158C39.1493 8.83887 38.9905 8.77129 38.8728 8.65354C38.755 8.53579 38.6874 8.37702 38.6842 8.21053C38.6842 8.04302 38.7507 7.88238 38.8692 7.76393C38.9876 7.64549 39.1483 7.57895 39.3158 7.57895ZM39.3158 11.3684H40.5789C40.7465 11.3684 40.9071 11.435 41.0255 11.5534C41.144 11.6718 41.2105 11.8325 41.2105 12C41.2105 12.1675 41.144 12.3281 41.0255 12.4466C40.9071 12.565 40.7465 12.6316 40.5789 12.6316H39.3158C39.1483 12.6316 38.9876 12.565 38.8692 12.4466C38.7507 12.3281 38.6842 12.1675 38.6842 12C38.6842 11.8325 38.7507 11.6718 38.8692 11.5534C38.9876 11.435 39.1483 11.3684 39.3158 11.3684ZM39.3158 15.1579H40.5789C40.7454 15.1611 40.9042 15.2287 41.022 15.3465C41.1397 15.4642 41.2073 15.623 41.2105 15.7895C41.2105 15.957 41.144 16.1176 41.0255 16.2361C40.9071 16.3545 40.7465 16.4211 40.5789 16.4211H39.3158C39.1483 16.4211 38.9876 16.3545 38.8692 16.2361C38.7507 16.1176 38.6842 15.957 38.6842 15.7895C38.6874 15.623 38.755 15.4642 38.8728 15.3465C38.9905 15.2287 39.1493 15.1611 39.3158 15.1579ZM39.3158 18.9474H40.5789C40.7465 18.9474 40.9071 19.0139 41.0255 19.1324C41.144 19.2508 41.2105 19.4114 41.2105 19.5789C41.2105 19.7465 41.144 19.9071 41.0255 20.0255C40.9071 20.144 40.7465 20.2105 40.5789 20.2105H39.3158C39.1483 20.2105 38.9876 20.144 38.8692 20.0255C38.7507 19.9071 38.6842 19.7465 38.6842 19.5789C38.6842 19.4114 38.7507 19.2508 38.8692 19.1324C38.9876 19.0139 39.1483 18.9474 39.3158 18.9474ZM31.1053 3.78947H32.3684C32.5359 3.78947 32.6966 3.85601 32.815 3.97446C32.9335 4.0929 33 4.25355 33 4.42105C33 4.58856 32.9335 4.7492 32.815 4.86765C32.6966 4.98609 32.5359 5.05263 32.3684 5.05263H31.1053C30.9378 5.05263 30.7771 4.98609 30.6587 4.86765C30.5402 4.7492 30.4737 4.58856 30.4737 4.42105C30.4737 4.25355 30.5402 4.0929 30.6587 3.97446C30.7771 3.85601 30.9378 3.78947 31.1053 3.78947ZM31.1053 7.57895H32.3684C32.5359 7.57895 32.6966 7.64549 32.815 7.76393C32.9335 7.88238 33 8.04302 33 8.21053C33 8.37803 32.9335 8.53868 32.815 8.65712C32.6966 8.77556 32.5359 8.8421 32.3684 8.8421H31.1053C30.9378 8.8421 30.7771 8.77556 30.6587 8.65712C30.5402 8.53868 30.4737 8.37803 30.4737 8.21053C30.4737 8.04302 30.5402 7.88238 30.6587 7.76393C30.7771 7.64549 30.9378 7.57895 31.1053 7.57895ZM31.1053 11.3684H32.3684C32.5359 11.3684 32.6966 11.435 32.815 11.5534C32.9335 11.6718 33 11.8325 33 12C33 12.1675 32.9335 12.3281 32.815 12.4466C32.6966 12.565 32.5359 12.6316 32.3684 12.6316H31.1053C30.9378 12.6316 30.7771 12.565 30.6587 12.4466C30.5402 12.3281 30.4737 12.1675 30.4737 12C30.4737 11.8325 30.5402 11.6718 30.6587 11.5534C30.7771 11.435 30.9378 11.3684 31.1053 11.3684ZM31.1053 15.1579H32.3684C32.5359 15.1579 32.6966 15.2244 32.815 15.3429C32.9335 15.4613 33 15.622 33 15.7895C33 15.957 32.9335 16.1176 32.815 16.2361C32.6966 16.3545 32.5359 16.4211 32.3684 16.4211H31.1053C30.9378 16.4211 30.7771 16.3545 30.6587 16.2361C30.5402 16.1176 30.4737 15.957 30.4737 15.7895C30.4737 15.622 30.5402 15.4613 30.6587 15.3429C30.7771 15.2244 30.9378 15.1579 31.1053 15.1579ZM27.24 3.78947H28.5789C28.7465 3.78947 28.9071 3.85601 29.0255 3.97446C29.144 4.0929 29.2105 4.25355 29.2105 4.42105C29.2105 4.58856 29.144 4.7492 29.0255 4.86765C28.9071 4.98609 28.7465 5.05263 28.5789 5.05263H27.3158C27.1483 5.05263 26.9876 4.98609 26.8692 4.86765C26.7508 4.7492 26.6842 4.58856 26.6842 4.42105C26.6842 4.25355 26.7508 4.0929 26.8692 3.97446C26.9876 3.85601 27.1483 3.78947 27.3158 3.78947H27.24ZM27.24 7.57895H28.5789C28.7465 7.57895 28.9071 7.64549 29.0255 7.76393C29.144 7.88238 29.2105 8.04302 29.2105 8.21053C29.2105 8.37803 29.144 8.53868 29.0255 8.65712C28.9071 8.77556 28.7465 8.8421 28.5789 8.8421H27.3158C27.1483 8.8421 26.9876 8.77556 26.8692 8.65712C26.7508 8.53868 26.6842 8.37803 26.6842 8.21053C26.6842 8.04302 26.7508 7.88238 26.8692 7.76393C26.9876 7.64549 27.1483 7.57895 27.3158 7.57895H27.24ZM27.24 11.3684H28.5789C28.7465 11.3684 28.9071 11.435 29.0255 11.5534C29.144 11.6718 29.2105 11.8325 29.2105 12C29.2105 12.1675 29.144 12.3281 29.0255 12.4466C28.9071 12.565 28.7465 12.6316 28.5789 12.6316H27.3158C27.1483 12.6316 26.9876 12.565 26.8692 12.4466C26.7508 12.3281 26.6842 12.1675 26.6842 12C26.6842 11.8325 26.7508 11.6718 26.8692 11.5534C26.9876 11.435 27.1483 11.3684 27.3158 11.3684H27.24ZM27.24 15.1579H28.5789C28.7465 15.1579 28.9071 15.2244 29.0255 15.3429C29.144 15.4613 29.2105 15.622 29.2105 15.7895C29.2105 15.957 29.144 16.1176 29.0255 16.2361C28.9071 16.3545 28.7465 16.4211 28.5789 16.4211H27.3158C27.1483 16.4211 26.9876 16.3545 26.8692 16.2361C26.7508 16.1176 26.6842 15.957 26.6842 15.7895C26.6842 15.622 26.7508 15.4613 26.8692 15.3429C26.9876 15.2244 27.1483 15.1579 27.3158 15.1579H27.24ZM30.4737 22.7368V20.2105H29.2105V22.7368H27.9474V19.5411C27.957 19.3802 28.0278 19.2291 28.1452 19.1188C28.2626 19.0084 28.4178 18.9471 28.5789 18.9474H31.1053C31.2728 18.9474 31.4334 19.0139 31.5519 19.1324C31.6703 19.2508 31.7368 19.4114 31.7368 19.5789V22.7368H30.4737Z" stroke="#696978" stroke-width="2" mask="url(#path-1-inside-1_13749_24632)"/>
<mask id="path-2-inside-2_13749_24632" fill="white">
<path d="M23.3684 22.7368H21.4737V5.68421C21.4831 5.54607 21.4458 5.40877 21.368 5.29428C21.2901 5.17978 21.1761 5.0947 21.0442 5.05263L16.4211 3.12V22.7368H15.1579V0.631579C15.1579 0.464074 15.0914 0.303429 14.9729 0.184985C14.8545 0.0665413 14.6938 0 14.5263 0H3.15789C2.99039 0 2.82975 0.0665413 2.7113 0.184985C2.59286 0.303429 2.52632 0.464074 2.52632 0.631579V22.7368H0.631579C0.464074 22.7368 0.303429 22.8034 0.184985 22.9218C0.0665413 23.0403 0 23.2009 0 23.3684C0 23.5359 0.0665413 23.6966 0.184985 23.815C0.303429 23.9335 0.464074 24 0.631579 24H23.3684C23.5359 24 23.6966 23.9335 23.815 23.815C23.9335 23.6966 24 23.5359 24 23.3684C24 23.2009 23.9335 23.0403 23.815 22.9218C23.6966 22.8034 23.5359 22.7368 23.3684 22.7368ZM18.3158 7.57895H19.5789C19.7465 7.57895 19.9071 7.64549 20.0255 7.76393C20.144 7.88238 20.2105 8.04302 20.2105 8.21053C20.2073 8.37702 20.1397 8.53579 20.022 8.65354C19.9042 8.77129 19.7454 8.83887 19.5789 8.8421H18.3158C18.1493 8.83887 17.9905 8.77129 17.8728 8.65354C17.755 8.53579 17.6874 8.37702 17.6842 8.21053C17.6842 8.04302 17.7507 7.88238 17.8692 7.76393C17.9876 7.64549 18.1483 7.57895 18.3158 7.57895ZM18.3158 11.3684H19.5789C19.7465 11.3684 19.9071 11.435 20.0255 11.5534C20.144 11.6718 20.2105 11.8325 20.2105 12C20.2105 12.1675 20.144 12.3281 20.0255 12.4466C19.9071 12.565 19.7465 12.6316 19.5789 12.6316H18.3158C18.1483 12.6316 17.9876 12.565 17.8692 12.4466C17.7507 12.3281 17.6842 12.1675 17.6842 12C17.6842 11.8325 17.7507 11.6718 17.8692 11.5534C17.9876 11.435 18.1483 11.3684 18.3158 11.3684ZM18.3158 15.1579H19.5789C19.7454 15.1611 19.9042 15.2287 20.022 15.3465C20.1397 15.4642 20.2073 15.623 20.2105 15.7895C20.2105 15.957 20.144 16.1176 20.0255 16.2361C19.9071 16.3545 19.7465 16.4211 19.5789 16.4211H18.3158C18.1483 16.4211 17.9876 16.3545 17.8692 16.2361C17.7507 16.1176 17.6842 15.957 17.6842 15.7895C17.6874 15.623 17.755 15.4642 17.8728 15.3465C17.9905 15.2287 18.1493 15.1611 18.3158 15.1579ZM18.3158 18.9474H19.5789C19.7465 18.9474 19.9071 19.0139 20.0255 19.1324C20.144 19.2508 20.2105 19.4114 20.2105 19.5789C20.2105 19.7465 20.144 19.9071 20.0255 20.0255C19.9071 20.144 19.7465 20.2105 19.5789 20.2105H18.3158C18.1483 20.2105 17.9876 20.144 17.8692 20.0255C17.7507 19.9071 17.6842 19.7465 17.6842 19.5789C17.6842 19.4114 17.7507 19.2508 17.8692 19.1324C17.9876 19.0139 18.1483 18.9474 18.3158 18.9474ZM10.1053 3.78947H11.3684C11.5359 3.78947 11.6966 3.85601 11.815 3.97446C11.9335 4.0929 12 4.25355 12 4.42105C12 4.58856 11.9335 4.7492 11.815 4.86765C11.6966 4.98609 11.5359 5.05263 11.3684 5.05263H10.1053C9.93776 5.05263 9.77711 4.98609 9.65867 4.86765C9.54022 4.7492 9.47368 4.58856 9.47368 4.42105C9.47368 4.25355 9.54022 4.0929 9.65867 3.97446C9.77711 3.85601 9.93776 3.78947 10.1053 3.78947ZM10.1053 7.57895H11.3684C11.5359 7.57895 11.6966 7.64549 11.815 7.76393C11.9335 7.88238 12 8.04302 12 8.21053C12 8.37803 11.9335 8.53868 11.815 8.65712C11.6966 8.77556 11.5359 8.8421 11.3684 8.8421H10.1053C9.93776 8.8421 9.77711 8.77556 9.65867 8.65712C9.54022 8.53868 9.47368 8.37803 9.47368 8.21053C9.47368 8.04302 9.54022 7.88238 9.65867 7.76393C9.77711 7.64549 9.93776 7.57895 10.1053 7.57895ZM10.1053 11.3684H11.3684C11.5359 11.3684 11.6966 11.435 11.815 11.5534C11.9335 11.6718 12 11.8325 12 12C12 12.1675 11.9335 12.3281 11.815 12.4466C11.6966 12.565 11.5359 12.6316 11.3684 12.6316H10.1053C9.93776 12.6316 9.77711 12.565 9.65867 12.4466C9.54022 12.3281 9.47368 12.1675 9.47368 12C9.47368 11.8325 9.54022 11.6718 9.65867 11.5534C9.77711 11.435 9.93776 11.3684 10.1053 11.3684ZM10.1053 15.1579H11.3684C11.5359 15.1579 11.6966 15.2244 11.815 15.3429C11.9335 15.4613 12 15.622 12 15.7895C12 15.957 11.9335 16.1176 11.815 16.2361C11.6966 16.3545 11.5359 16.4211 11.3684 16.4211H10.1053C9.93776 16.4211 9.77711 16.3545 9.65867 16.2361C9.54022 16.1176 9.47368 15.957 9.47368 15.7895C9.47368 15.622 9.54022 15.4613 9.65867 15.3429C9.77711 15.2244 9.93776 15.1579 10.1053 15.1579ZM6.24 3.78947H7.57895C7.74645 3.78947 7.9071 3.85601 8.02554 3.97446C8.14399 4.0929 8.21053 4.25355 8.21053 4.42105C8.21053 4.58856 8.14399 4.7492 8.02554 4.86765C7.9071 4.98609 7.74645 5.05263 7.57895 5.05263H6.31579C6.14828 5.05263 5.98764 4.98609 5.8692 4.86765C5.75075 4.7492 5.68421 4.58856 5.68421 4.42105C5.68421 4.25355 5.75075 4.0929 5.8692 3.97446C5.98764 3.85601 6.14828 3.78947 6.31579 3.78947H6.24ZM6.24 7.57895H7.57895C7.74645 7.57895 7.9071 7.64549 8.02554 7.76393C8.14399 7.88238 8.21053 8.04302 8.21053 8.21053C8.21053 8.37803 8.14399 8.53868 8.02554 8.65712C7.9071 8.77556 7.74645 8.8421 7.57895 8.8421H6.31579C6.14828 8.8421 5.98764 8.77556 5.8692 8.65712C5.75075 8.53868 5.68421 8.37803 5.68421 8.21053C5.68421 8.04302 5.75075 7.88238 5.8692 7.76393C5.98764 7.64549 6.14828 7.57895 6.31579 7.57895H6.24ZM6.24 11.3684H7.57895C7.74645 11.3684 7.9071 11.435 8.02554 11.5534C8.14399 11.6718 8.21053 11.8325 8.21053 12C8.21053 12.1675 8.14399 12.3281 8.02554 12.4466C7.9071 12.565 7.74645 12.6316 7.57895 12.6316H6.31579C6.14828 12.6316 5.98764 12.565 5.8692 12.4466C5.75075 12.3281 5.68421 12.1675 5.68421 12C5.68421 11.8325 5.75075 11.6718 5.8692 11.5534C5.98764 11.435 6.14828 11.3684 6.31579 11.3684H6.24ZM6.24 15.1579H7.57895C7.74645 15.1579 7.9071 15.2244 8.02554 15.3429C8.14399 15.4613 8.21053 15.622 8.21053 15.7895C8.21053 15.957 8.14399 16.1176 8.02554 16.2361C7.9071 16.3545 7.74645 16.4211 7.57895 16.4211H6.31579C6.14828 16.4211 5.98764 16.3545 5.8692 16.2361C5.75075 16.1176 5.68421 15.957 5.68421 15.7895C5.68421 15.622 5.75075 15.4613 5.8692 15.3429C5.98764 15.2244 6.14828 15.1579 6.31579 15.1579H6.24ZM9.47368 22.7368V20.2105H8.21053V22.7368H6.94737V19.5411C6.95704 19.3802 7.02782 19.2291 7.14523 19.1188C7.26265 19.0084 7.41781 18.9471 7.57895 18.9474H10.1053C10.2728 18.9474 10.4334 19.0139 10.5519 19.1324C10.6703 19.2508 10.7368 19.4114 10.7368 19.5789V22.7368H9.47368Z"/>
</mask>
<path d="M23.3684 22.7368H21.4737V5.68421C21.4831 5.54607 21.4458 5.40877 21.368 5.29428C21.2901 5.17978 21.1761 5.0947 21.0442 5.05263L16.4211 3.12V22.7368H15.1579V0.631579C15.1579 0.464074 15.0914 0.303429 14.9729 0.184985C14.8545 0.0665413 14.6938 0 14.5263 0H3.15789C2.99039 0 2.82975 0.0665413 2.7113 0.184985C2.59286 0.303429 2.52632 0.464074 2.52632 0.631579V22.7368H0.631579C0.464074 22.7368 0.303429 22.8034 0.184985 22.9218C0.0665413 23.0403 0 23.2009 0 23.3684C0 23.5359 0.0665413 23.6966 0.184985 23.815C0.303429 23.9335 0.464074 24 0.631579 24H23.3684C23.5359 24 23.6966 23.9335 23.815 23.815C23.9335 23.6966 24 23.5359 24 23.3684C24 23.2009 23.9335 23.0403 23.815 22.9218C23.6966 22.8034 23.5359 22.7368 23.3684 22.7368ZM18.3158 7.57895H19.5789C19.7465 7.57895 19.9071 7.64549 20.0255 7.76393C20.144 7.88238 20.2105 8.04302 20.2105 8.21053C20.2073 8.37702 20.1397 8.53579 20.022 8.65354C19.9042 8.77129 19.7454 8.83887 19.5789 8.8421H18.3158C18.1493 8.83887 17.9905 8.77129 17.8728 8.65354C17.755 8.53579 17.6874 8.37702 17.6842 8.21053C17.6842 8.04302 17.7507 7.88238 17.8692 7.76393C17.9876 7.64549 18.1483 7.57895 18.3158 7.57895ZM18.3158 11.3684H19.5789C19.7465 11.3684 19.9071 11.435 20.0255 11.5534C20.144 11.6718 20.2105 11.8325 20.2105 12C20.2105 12.1675 20.144 12.3281 20.0255 12.4466C19.9071 12.565 19.7465 12.6316 19.5789 12.6316H18.3158C18.1483 12.6316 17.9876 12.565 17.8692 12.4466C17.7507 12.3281 17.6842 12.1675 17.6842 12C17.6842 11.8325 17.7507 11.6718 17.8692 11.5534C17.9876 11.435 18.1483 11.3684 18.3158 11.3684ZM18.3158 15.1579H19.5789C19.7454 15.1611 19.9042 15.2287 20.022 15.3465C20.1397 15.4642 20.2073 15.623 20.2105 15.7895C20.2105 15.957 20.144 16.1176 20.0255 16.2361C19.9071 16.3545 19.7465 16.4211 19.5789 16.4211H18.3158C18.1483 16.4211 17.9876 16.3545 17.8692 16.2361C17.7507 16.1176 17.6842 15.957 17.6842 15.7895C17.6874 15.623 17.755 15.4642 17.8728 15.3465C17.9905 15.2287 18.1493 15.1611 18.3158 15.1579ZM18.3158 18.9474H19.5789C19.7465 18.9474 19.9071 19.0139 20.0255 19.1324C20.144 19.2508 20.2105 19.4114 20.2105 19.5789C20.2105 19.7465 20.144 19.9071 20.0255 20.0255C19.9071 20.144 19.7465 20.2105 19.5789 20.2105H18.3158C18.1483 20.2105 17.9876 20.144 17.8692 20.0255C17.7507 19.9071 17.6842 19.7465 17.6842 19.5789C17.6842 19.4114 17.7507 19.2508 17.8692 19.1324C17.9876 19.0139 18.1483 18.9474 18.3158 18.9474ZM10.1053 3.78947H11.3684C11.5359 3.78947 11.6966 3.85601 11.815 3.97446C11.9335 4.0929 12 4.25355 12 4.42105C12 4.58856 11.9335 4.7492 11.815 4.86765C11.6966 4.98609 11.5359 5.05263 11.3684 5.05263H10.1053C9.93776 5.05263 9.77711 4.98609 9.65867 4.86765C9.54022 4.7492 9.47368 4.58856 9.47368 4.42105C9.47368 4.25355 9.54022 4.0929 9.65867 3.97446C9.77711 3.85601 9.93776 3.78947 10.1053 3.78947ZM10.1053 7.57895H11.3684C11.5359 7.57895 11.6966 7.64549 11.815 7.76393C11.9335 7.88238 12 8.04302 12 8.21053C12 8.37803 11.9335 8.53868 11.815 8.65712C11.6966 8.77556 11.5359 8.8421 11.3684 8.8421H10.1053C9.93776 8.8421 9.77711 8.77556 9.65867 8.65712C9.54022 8.53868 9.47368 8.37803 9.47368 8.21053C9.47368 8.04302 9.54022 7.88238 9.65867 7.76393C9.77711 7.64549 9.93776 7.57895 10.1053 7.57895ZM10.1053 11.3684H11.3684C11.5359 11.3684 11.6966 11.435 11.815 11.5534C11.9335 11.6718 12 11.8325 12 12C12 12.1675 11.9335 12.3281 11.815 12.4466C11.6966 12.565 11.5359 12.6316 11.3684 12.6316H10.1053C9.93776 12.6316 9.77711 12.565 9.65867 12.4466C9.54022 12.3281 9.47368 12.1675 9.47368 12C9.47368 11.8325 9.54022 11.6718 9.65867 11.5534C9.77711 11.435 9.93776 11.3684 10.1053 11.3684ZM10.1053 15.1579H11.3684C11.5359 15.1579 11.6966 15.2244 11.815 15.3429C11.9335 15.4613 12 15.622 12 15.7895C12 15.957 11.9335 16.1176 11.815 16.2361C11.6966 16.3545 11.5359 16.4211 11.3684 16.4211H10.1053C9.93776 16.4211 9.77711 16.3545 9.65867 16.2361C9.54022 16.1176 9.47368 15.957 9.47368 15.7895C9.47368 15.622 9.54022 15.4613 9.65867 15.3429C9.77711 15.2244 9.93776 15.1579 10.1053 15.1579ZM6.24 3.78947H7.57895C7.74645 3.78947 7.9071 3.85601 8.02554 3.97446C8.14399 4.0929 8.21053 4.25355 8.21053 4.42105C8.21053 4.58856 8.14399 4.7492 8.02554 4.86765C7.9071 4.98609 7.74645 5.05263 7.57895 5.05263H6.31579C6.14828 5.05263 5.98764 4.98609 5.8692 4.86765C5.75075 4.7492 5.68421 4.58856 5.68421 4.42105C5.68421 4.25355 5.75075 4.0929 5.8692 3.97446C5.98764 3.85601 6.14828 3.78947 6.31579 3.78947H6.24ZM6.24 7.57895H7.57895C7.74645 7.57895 7.9071 7.64549 8.02554 7.76393C8.14399 7.88238 8.21053 8.04302 8.21053 8.21053C8.21053 8.37803 8.14399 8.53868 8.02554 8.65712C7.9071 8.77556 7.74645 8.8421 7.57895 8.8421H6.31579C6.14828 8.8421 5.98764 8.77556 5.8692 8.65712C5.75075 8.53868 5.68421 8.37803 5.68421 8.21053C5.68421 8.04302 5.75075 7.88238 5.8692 7.76393C5.98764 7.64549 6.14828 7.57895 6.31579 7.57895H6.24ZM6.24 11.3684H7.57895C7.74645 11.3684 7.9071 11.435 8.02554 11.5534C8.14399 11.6718 8.21053 11.8325 8.21053 12C8.21053 12.1675 8.14399 12.3281 8.02554 12.4466C7.9071 12.565 7.74645 12.6316 7.57895 12.6316H6.31579C6.14828 12.6316 5.98764 12.565 5.8692 12.4466C5.75075 12.3281 5.68421 12.1675 5.68421 12C5.68421 11.8325 5.75075 11.6718 5.8692 11.5534C5.98764 11.435 6.14828 11.3684 6.31579 11.3684H6.24ZM6.24 15.1579H7.57895C7.74645 15.1579 7.9071 15.2244 8.02554 15.3429C8.14399 15.4613 8.21053 15.622 8.21053 15.7895C8.21053 15.957 8.14399 16.1176 8.02554 16.2361C7.9071 16.3545 7.74645 16.4211 7.57895 16.4211H6.31579C6.14828 16.4211 5.98764 16.3545 5.8692 16.2361C5.75075 16.1176 5.68421 15.957 5.68421 15.7895C5.68421 15.622 5.75075 15.4613 5.8692 15.3429C5.98764 15.2244 6.14828 15.1579 6.31579 15.1579H6.24ZM9.47368 22.7368V20.2105H8.21053V22.7368H6.94737V19.5411C6.95704 19.3802 7.02782 19.2291 7.14523 19.1188C7.26265 19.0084 7.41781 18.9471 7.57895 18.9474H10.1053C10.2728 18.9474 10.4334 19.0139 10.5519 19.1324C10.6703 19.2508 10.7368 19.4114 10.7368 19.5789V22.7368H9.47368Z" stroke="#696978" stroke-width="2" mask="url(#path-2-inside-2_13749_24632)"/>
</svg>
