<svg width="47" height="20" viewBox="0 0 47 20" fill="none" xmlns="http://www.w3.org/2000/svg">
<path fill-rule="evenodd" clip-rule="evenodd" d="M6.44328 2.20008C6.44328 3.41517 5.46796 4.40017 4.26462 4.40017C3.06171 4.40017 2.08595 3.41526 2.08595 2.20008C2.08595 0.984908 3.06162 0 4.26462 0C5.46787 0 6.44328 0.984908 6.44328 2.20008ZM6.54181 14.3002H3.67005C2.92749 14.3002 2.28368 13.7502 2.18456 13.0003L1.2935 7.35019C1.24412 7.00002 0.897354 6.7503 0.550948 6.80018C0.204188 6.85005 -0.0431042 7.20022 0.00628522 7.55003L0.897346 13.2001C1.09525 14.6001 2.28371 15.6502 3.71977 15.6502H6.64096C6.98772 15.6502 7.28474 15.3502 7.28474 15.0001C7.235 14.6 6.93798 14.3001 6.54184 14.3001L6.54181 14.3002ZM11.4445 7.74957C11.4445 8.19948 11.0484 8.59952 10.6029 8.59952H8.86941C8.02769 8.59952 7.18604 8.39933 6.49287 7.94942L6.74051 11.4996H8.77063C9.26554 11.4996 9.66168 11.8494 9.76081 12.3495L10.8995 18.7495C10.9983 19.2995 10.6519 19.7993 10.1072 19.8994H9.90933C9.41443 19.8994 9.01828 19.5496 8.91916 19.0495L7.92898 13.4496H4.01762C3.52272 13.4496 3.12657 13.0998 3.02744 12.5996L2.18576 7.24946C2.08664 6.69947 2.23515 6.09921 2.6313 5.64929C2.97807 5.19938 3.52273 4.94931 4.11678 4.94931H4.41381C4.80993 4.94931 5.20607 5.09963 5.5031 5.29948L7.13704 6.39948C7.63226 6.74964 8.17692 6.89962 8.77097 6.89962H10.6029C11.0484 6.89962 11.4445 7.29965 11.4445 7.74957ZM44.8648 2.20008C44.8648 3.41517 43.8892 4.40017 42.6862 4.40017C41.4829 4.40017 40.5075 3.41526 40.5075 2.20008C40.5075 0.984908 41.4828 0 42.6862 0C43.8891 0 44.8648 0.984908 44.8648 2.20008ZM45.7066 7.35019C45.7559 7.00002 46.1023 6.7503 46.4491 6.80018L46.4491 6.80025C46.7958 6.85012 47.0431 7.20028 46.9937 7.49988L46.1027 13.1499C45.855 14.6001 44.7159 15.6 43.2802 15.6L40.4085 15.6004C40.0617 15.6004 39.7647 15.3004 39.7647 14.9503C39.7647 14.6001 40.0617 14.3002 40.4085 14.3002H43.3297C44.0726 14.3002 44.716 13.7501 44.8151 13.0003L45.7066 7.35019ZM44.3708 5.64929C43.9747 5.19937 43.43 4.94931 42.836 4.94931H42.539C42.1428 4.94931 41.7467 5.09928 41.4497 5.29948L39.8158 6.39912C39.3205 6.69906 38.7758 6.89926 38.1818 6.89926H36.3499C35.9044 6.89926 35.5082 7.2993 35.5082 7.74921C35.5082 8.19913 35.9044 8.59917 36.3499 8.59917H38.1818C39.0235 8.59917 39.8158 8.3491 40.5584 7.94906L40.3107 11.4992H38.2806C37.7853 11.4992 37.3895 11.8494 37.2904 12.3492L36.1517 18.7492C36.0526 19.2992 36.3993 19.7993 36.944 19.8991H37.1419C37.6372 19.8991 38.033 19.5489 38.1321 19.0491L39.1223 13.4492H43.0336C43.5289 13.4492 43.9247 13.0991 44.0238 12.5993L44.8655 7.24911C44.9155 6.69909 44.7173 6.0992 44.3709 5.64929H44.3708ZM15.8998 4.40017C17.1031 4.40017 18.0785 3.41517 18.0785 2.20008C18.0785 0.984908 17.1031 0 15.8998 0C14.6964 0 13.7211 0.984908 13.7211 2.20008C13.7211 3.41526 14.6965 4.40017 15.8998 4.40017ZM18.4244 6.54948C18.1768 5.5994 17.2857 4.94931 16.3449 4.94931H15.4538C14.4636 4.94931 13.6219 5.59942 13.3743 6.54948L12.7802 8.59957H19.0188L18.4244 6.54948ZM23.4754 4.40017C24.6787 4.40017 25.6541 3.41517 25.6541 2.20008C25.6541 0.984908 24.6787 0 23.4754 0C22.2721 0 21.2967 0.984908 21.2967 2.20008C21.2967 3.41526 22.2721 4.40017 23.4754 4.40017ZM26.0012 6.54948C25.7536 5.5994 24.8625 4.94931 23.9217 4.94931H23.0306C22.0405 4.94931 21.1987 5.59942 20.9511 6.54948L20.357 8.59957H26.5956L26.0012 6.54948ZM31.051 4.40017C32.2544 4.40017 33.2297 3.41517 33.2297 2.20008C33.2297 0.984908 32.2543 0 31.051 0C29.8477 0 28.8723 0.984908 28.8723 2.20008C28.8723 3.41526 29.8477 4.40017 31.051 4.40017ZM33.576 6.54948C33.3284 5.5994 32.4373 4.94931 31.4964 4.94931H30.6054C29.6152 4.94931 28.7735 5.59942 28.5258 6.54948L27.9314 8.59957H34.17L33.576 6.54948ZM38.379 9.39945C38.7258 9.39945 39.0228 9.69939 39.0228 10.0496L39.0229 10.0495C39.0229 10.3997 38.7259 10.6997 38.3297 10.6997H35.0123V19.3499C35.0123 19.7001 34.7153 20 34.3686 20H12.5828C12.236 20 11.939 19.7001 11.939 19.3499V10.7H8.6216C8.27485 10.7 7.97782 10.4001 7.97782 10.0499C7.97782 9.69974 8.27484 9.3998 8.6216 9.3998L38.379 9.39945Z" fill="#696978"/>
</svg>
