<svg width="38" height="16" viewBox="0 0 38 16" fill="none" xmlns="http://www.w3.org/2000/svg">
<mask id="path-1-inside-1_13744_18731" fill="white">
<path fill-rule="evenodd" clip-rule="evenodd" d="M5.20946 1.76007C5.20946 2.73214 4.42091 3.52013 3.44799 3.52013C2.47543 3.52013 1.68651 2.73221 1.68651 1.76007C1.68651 0.787927 2.47535 0 3.44799 0C4.42083 0 5.20946 0.787927 5.20946 1.76007ZM5.28912 11.4401H2.96727C2.36691 11.4401 1.84638 11.0001 1.76624 10.4002L1.04581 5.88015C1.00588 5.60002 0.725521 5.40024 0.445447 5.44014C0.165088 5.48004 -0.0348502 5.76017 0.00508167 6.04002L0.725514 10.5601C0.88552 11.6801 1.84641 12.5201 3.00748 12.5201H5.36929C5.64965 12.5201 5.88979 12.2802 5.88979 12.0001C5.84958 11.68 5.60943 11.4401 5.28914 11.4401L5.28912 11.4401ZM9.25304 6.19966C9.25304 6.55958 8.93275 6.87962 8.57253 6.87962H7.17101C6.49047 6.87962 5.80999 6.71947 5.24955 6.35953L5.44977 9.19967H7.09115C7.49128 9.19967 7.81158 9.47952 7.89172 9.87963L8.81238 14.9996C8.89224 15.4396 8.61217 15.8395 8.1718 15.9195H8.0118C7.61167 15.9195 7.29137 15.6397 7.21123 15.2396L6.41067 10.7597H3.24829C2.84815 10.7597 2.52786 10.4798 2.44772 10.0797L1.76721 5.79957C1.68707 5.35957 1.80714 4.87937 2.12743 4.51943C2.4078 4.1595 2.84817 3.95945 3.32846 3.95945H3.56861C3.88888 3.95945 4.20917 4.07971 4.44931 4.23958L5.77037 5.11958C6.17076 5.39971 6.61112 5.51969 7.09142 5.51969H8.57253C8.93275 5.51969 9.25304 5.83972 9.25304 6.19966ZM36.2737 1.76007C36.2737 2.73214 35.4849 3.52013 34.5122 3.52013C33.5394 3.52013 32.7508 2.73221 32.7508 1.76007C32.7508 0.787927 33.5393 0 34.5122 0C35.4848 0 36.2737 0.787927 36.2737 1.76007ZM36.9542 5.88015C36.9942 5.60002 37.2742 5.40024 37.5546 5.44014L37.5546 5.4402C37.8349 5.4801 38.0349 5.76022 37.9949 5.9999L37.2745 10.52C37.0743 11.6801 36.1533 12.48 34.9925 12.48L32.6707 12.4803C32.3903 12.4803 32.1502 12.2403 32.1502 11.9602C32.1502 11.6801 32.3903 11.4401 32.6707 11.4401H35.0325C35.6332 11.4401 36.1534 11.0001 36.2335 10.4002L36.9542 5.88015ZM35.8743 4.51943C35.554 4.1595 35.1136 3.95945 34.6334 3.95945H34.3932C34.0729 3.95945 33.7526 4.07943 33.5125 4.23958L32.1915 5.1193C31.791 5.35925 31.3506 5.51941 30.8704 5.51941H29.3893C29.0291 5.51941 28.7088 5.83944 28.7088 6.19937C28.7088 6.5593 29.0291 6.87933 29.3893 6.87933H30.8704C31.5509 6.87933 32.1915 6.67928 32.7919 6.35925L32.5916 9.19938H30.9503C30.5498 9.19938 30.2298 9.47952 30.1497 9.87934L29.229 14.9993C29.1489 15.4393 29.4293 15.8395 29.8696 15.9193H30.0296C30.4301 15.9193 30.7501 15.6391 30.8302 15.2393L31.6308 10.7594H34.7931C35.1936 10.7594 35.5136 10.4792 35.5937 10.0794L36.2742 5.79929C36.3147 5.35927 36.1544 4.87936 35.8743 4.51943H35.8743ZM12.8552 3.52013C13.8281 3.52013 14.6166 2.73214 14.6166 1.76007C14.6166 0.787927 13.828 0 12.8552 0C11.8822 0 11.0937 0.787927 11.0937 1.76007C11.0937 2.73221 11.8823 3.52013 12.8552 3.52013ZM14.8963 5.23959C14.6961 4.47952 13.9757 3.95945 13.215 3.95945H12.4946C11.694 3.95945 11.0135 4.47953 10.8132 5.23959L10.3329 6.87965H15.3769L14.8963 5.23959ZM18.9801 3.52013C19.953 3.52013 20.7416 2.73214 20.7416 1.76007C20.7416 0.787927 19.953 0 18.9801 0C18.0072 0 17.2186 0.787927 17.2186 1.76007C17.2186 2.73221 18.0072 3.52013 18.9801 3.52013ZM21.0223 5.23959C20.8221 4.47952 20.1016 3.95945 19.3409 3.95945H18.6205C17.8199 3.95945 17.1394 4.47953 16.9392 5.23959L16.4589 6.87965H21.5028L21.0223 5.23959ZM25.1051 3.52013C26.078 3.52013 26.8665 2.73214 26.8665 1.76007C26.8665 0.787927 26.0779 0 25.1051 0C24.1322 0 23.3436 0.787927 23.3436 1.76007C23.3436 2.73221 24.1322 3.52013 25.1051 3.52013ZM27.1465 5.23959C26.9463 4.47952 26.2259 3.95945 25.4652 3.95945H24.7448C23.9442 3.95945 23.2637 4.47953 23.0634 5.23959L22.5829 6.87965H27.6268L27.1465 5.23959ZM31.0298 7.51956C31.3102 7.51956 31.5503 7.75951 31.5503 8.03964L31.5504 8.03964C31.5504 8.31977 31.3103 8.55972 30.99 8.55972H28.3078V15.4799C28.3078 15.76 28.0677 16 27.7873 16H10.1733C9.89294 16 9.65279 15.7601 9.65279 15.4799V8.56001H6.97065C6.6903 8.56001 6.45015 8.32005 6.45015 8.03992C6.45015 7.7598 6.69029 7.51984 6.97065 7.51984L31.0298 7.51956Z"/>
</mask>
<path fill-rule="evenodd" clip-rule="evenodd" d="M5.20946 1.76007C5.20946 2.73214 4.42091 3.52013 3.44799 3.52013C2.47543 3.52013 1.68651 2.73221 1.68651 1.76007C1.68651 0.787927 2.47535 0 3.44799 0C4.42083 0 5.20946 0.787927 5.20946 1.76007ZM5.28912 11.4401H2.96727C2.36691 11.4401 1.84638 11.0001 1.76624 10.4002L1.04581 5.88015C1.00588 5.60002 0.725521 5.40024 0.445447 5.44014C0.165088 5.48004 -0.0348502 5.76017 0.00508167 6.04002L0.725514 10.5601C0.88552 11.6801 1.84641 12.5201 3.00748 12.5201H5.36929C5.64965 12.5201 5.88979 12.2802 5.88979 12.0001C5.84958 11.68 5.60943 11.4401 5.28914 11.4401L5.28912 11.4401ZM9.25304 6.19966C9.25304 6.55958 8.93275 6.87962 8.57253 6.87962H7.17101C6.49047 6.87962 5.80999 6.71947 5.24955 6.35953L5.44977 9.19967H7.09115C7.49128 9.19967 7.81158 9.47952 7.89172 9.87963L8.81238 14.9996C8.89224 15.4396 8.61217 15.8395 8.1718 15.9195H8.0118C7.61167 15.9195 7.29137 15.6397 7.21123 15.2396L6.41067 10.7597H3.24829C2.84815 10.7597 2.52786 10.4798 2.44772 10.0797L1.76721 5.79957C1.68707 5.35957 1.80714 4.87937 2.12743 4.51943C2.4078 4.1595 2.84817 3.95945 3.32846 3.95945H3.56861C3.88888 3.95945 4.20917 4.07971 4.44931 4.23958L5.77037 5.11958C6.17076 5.39971 6.61112 5.51969 7.09142 5.51969H8.57253C8.93275 5.51969 9.25304 5.83972 9.25304 6.19966ZM36.2737 1.76007C36.2737 2.73214 35.4849 3.52013 34.5122 3.52013C33.5394 3.52013 32.7508 2.73221 32.7508 1.76007C32.7508 0.787927 33.5393 0 34.5122 0C35.4848 0 36.2737 0.787927 36.2737 1.76007ZM36.9542 5.88015C36.9942 5.60002 37.2742 5.40024 37.5546 5.44014L37.5546 5.4402C37.8349 5.4801 38.0349 5.76022 37.9949 5.9999L37.2745 10.52C37.0743 11.6801 36.1533 12.48 34.9925 12.48L32.6707 12.4803C32.3903 12.4803 32.1502 12.2403 32.1502 11.9602C32.1502 11.6801 32.3903 11.4401 32.6707 11.4401H35.0325C35.6332 11.4401 36.1534 11.0001 36.2335 10.4002L36.9542 5.88015ZM35.8743 4.51943C35.554 4.1595 35.1136 3.95945 34.6334 3.95945H34.3932C34.0729 3.95945 33.7526 4.07943 33.5125 4.23958L32.1915 5.1193C31.791 5.35925 31.3506 5.51941 30.8704 5.51941H29.3893C29.0291 5.51941 28.7088 5.83944 28.7088 6.19937C28.7088 6.5593 29.0291 6.87933 29.3893 6.87933H30.8704C31.5509 6.87933 32.1915 6.67928 32.7919 6.35925L32.5916 9.19938H30.9503C30.5498 9.19938 30.2298 9.47952 30.1497 9.87934L29.229 14.9993C29.1489 15.4393 29.4293 15.8395 29.8696 15.9193H30.0296C30.4301 15.9193 30.7501 15.6391 30.8302 15.2393L31.6308 10.7594H34.7931C35.1936 10.7594 35.5136 10.4792 35.5937 10.0794L36.2742 5.79929C36.3147 5.35927 36.1544 4.87936 35.8743 4.51943H35.8743ZM12.8552 3.52013C13.8281 3.52013 14.6166 2.73214 14.6166 1.76007C14.6166 0.787927 13.828 0 12.8552 0C11.8822 0 11.0937 0.787927 11.0937 1.76007C11.0937 2.73221 11.8823 3.52013 12.8552 3.52013ZM14.8963 5.23959C14.6961 4.47952 13.9757 3.95945 13.215 3.95945H12.4946C11.694 3.95945 11.0135 4.47953 10.8132 5.23959L10.3329 6.87965H15.3769L14.8963 5.23959ZM18.9801 3.52013C19.953 3.52013 20.7416 2.73214 20.7416 1.76007C20.7416 0.787927 19.953 0 18.9801 0C18.0072 0 17.2186 0.787927 17.2186 1.76007C17.2186 2.73221 18.0072 3.52013 18.9801 3.52013ZM21.0223 5.23959C20.8221 4.47952 20.1016 3.95945 19.3409 3.95945H18.6205C17.8199 3.95945 17.1394 4.47953 16.9392 5.23959L16.4589 6.87965H21.5028L21.0223 5.23959ZM25.1051 3.52013C26.078 3.52013 26.8665 2.73214 26.8665 1.76007C26.8665 0.787927 26.0779 0 25.1051 0C24.1322 0 23.3436 0.787927 23.3436 1.76007C23.3436 2.73221 24.1322 3.52013 25.1051 3.52013ZM27.1465 5.23959C26.9463 4.47952 26.2259 3.95945 25.4652 3.95945H24.7448C23.9442 3.95945 23.2637 4.47953 23.0634 5.23959L22.5829 6.87965H27.6268L27.1465 5.23959ZM31.0298 7.51956C31.3102 7.51956 31.5503 7.75951 31.5503 8.03964L31.5504 8.03964C31.5504 8.31977 31.3103 8.55972 30.99 8.55972H28.3078V15.4799C28.3078 15.76 28.0677 16 27.7873 16H10.1733C9.89294 16 9.65279 15.7601 9.65279 15.4799V8.56001H6.97065C6.6903 8.56001 6.45015 8.32005 6.45015 8.03992C6.45015 7.7598 6.69029 7.51984 6.97065 7.51984L31.0298 7.51956Z" stroke="#696978" stroke-width="2" mask="url(#path-1-inside-1_13744_18731)"/>
</svg>
