<svg width="16" height="15" viewBox="0 0 16 15" fill="none" xmlns="http://www.w3.org/2000/svg">
<path fill-rule="evenodd" clip-rule="evenodd" d="M3.49607 11.8171C3.81364 12.3364 4.20705 12.8132 4.66695 13.2318C5.60878 14.0891 6.78911 14.666 8.06515 14.8925C9.34119 15.1191 10.6582 14.9857 11.857 14.5084C13.0557 14.0312 14.0848 13.2305 14.8196 12.2033C15.5545 11.1762 15.9637 9.96649 15.9977 8.72065C16.0317 7.47481 15.6891 6.2462 15.0112 5.18346C14.3334 4.12072 13.3495 3.26939 12.1784 2.73247C11.2868 2.32369 10.3159 2.1105 9.33543 2.10353L9.72302 3.49274C10.3583 3.54339 10.982 3.70426 11.5629 3.9706C12.4848 4.39328 13.2594 5.06347 13.7931 5.9001C14.3267 6.73672 14.5964 7.70393 14.5696 8.6847C14.5429 9.66547 14.2207 10.6178 13.6422 11.4264C13.0637 12.235 12.2536 12.8653 11.3099 13.241C10.3662 13.6168 9.3294 13.7218 8.32486 13.5434C7.32032 13.3651 6.39112 12.911 5.64967 12.236C5.38505 11.9952 5.14838 11.7298 4.94256 11.4448L3.49607 11.8171ZM6.57056 1.47069C5.82903 1.73294 5.13163 2.10159 4.50255 2.56518C3.68397 3.16842 2.99711 3.92061 2.48121 4.77879C1.96531 5.63698 1.63046 6.58434 1.49578 7.56681C1.39228 8.32182 1.40856 9.0862 1.54284 9.83407L8.41083 8.06668L6.57056 1.47069ZM8.48145 8.34621C8.48144 8.34616 8.48139 8.34576 8.48133 8.34502L8.48145 8.34621ZM8.6971 7.98613C8.69779 7.98582 8.69817 7.98566 8.69821 7.98565L8.6971 7.98613ZM6.60807 0.0226816C6.79981 -0.0132968 7.05172 -0.020769 7.31159 0.109776C7.57963 0.244431 7.71549 0.457388 7.79118 0.626112C7.8519 0.761438 7.89728 0.924602 7.93446 1.05825C7.93702 1.06745 7.93954 1.07651 7.94202 1.08541L9.79071 7.71158C9.79311 7.72016 9.79554 7.72886 9.798 7.73767C9.83504 7.87009 9.87914 8.02775 9.89799 8.16824C9.92074 8.33784 9.92258 8.58006 9.77611 8.82371C9.62965 9.06735 9.4103 9.18694 9.246 9.25281C9.10988 9.30738 8.94567 9.34953 8.80774 9.38493C8.79856 9.38729 8.7895 9.38961 8.78057 9.39191L1.88115 11.1674C1.87188 11.1698 1.86244 11.1722 1.85286 11.1747C1.71376 11.2106 1.54394 11.2544 1.39157 11.2716C1.20157 11.293 0.941613 11.2865 0.686167 11.1309C0.438515 10.98 0.319298 10.7667 0.255871 10.5893C0.206671 10.4516 0.176384 10.2895 0.152532 10.1618C0.150817 10.1527 0.149134 10.1437 0.147481 10.1348C-0.0225668 9.22949 -0.0459974 8.30279 0.0794403 7.38773C0.238605 6.22663 0.634336 5.10702 1.24404 4.0928C1.85374 3.07859 2.66548 2.18964 3.6329 1.47671C4.39533 0.91485 5.24268 0.47099 6.1441 0.159742C6.15287 0.156716 6.16183 0.153613 6.17096 0.150449C6.29801 0.106455 6.45933 0.0505903 6.60807 0.0226816Z" fill="#667B85"/>
</svg>
