<svg width="26" height="24" viewBox="0 0 26 24" fill="none" xmlns="http://www.w3.org/2000/svg">
<path d="M18.6836 9.09062L13.9055 1.48683C13.6982 1.16228 13.3491 1 13 1C12.6509 1 12.3018 1.16228 12.0945 1.49842L7.31636 9.09062H2.09091C1.49091 9.09062 1 9.61222 1 10.2497C1 10.3541 1.01091 10.4584 1.04364 10.5627L3.81455 21.3077C4.06545 22.2813 4.90545 23 5.90909 23H20.0909C21.0945 23 21.9345 22.2813 22.1964 21.3077L24.9673 10.5627L25 10.2497C25 9.61222 24.5091 9.09062 23.9091 9.09062H18.6836ZM9.72727 9.09062L13 3.99052L16.2727 9.09062H9.72727ZM13 18.3635C11.8 18.3635 10.8182 17.3203 10.8182 16.0453C10.8182 14.7703 11.8 13.7271 13 13.7271C14.2 13.7271 15.1818 14.7703 15.1818 16.0453C15.1818 17.3203 14.2 18.3635 13 18.3635Z" stroke="#777777"/>
</svg>
