<svg width="16" height="16" viewBox="0 0 16 16" fill="none" xmlns="http://www.w3.org/2000/svg">
<path d="M15.1172 9.6L13.2414 7.33333L13.8814 6.56C14.0432 6.36444 14.2492 6.26667 14.4993 6.26667C14.7494 6.26667 14.9554 6.36444 15.1172 6.56L15.7572 7.33333C15.9191 7.52889 16 7.77778 16 8.08C16 8.38222 15.9191 8.63111 15.7572 8.82667L15.1172 9.6ZM7.94483 16V13.7333L12.6234 8.08L14.4993 10.3467L9.82069 16H7.94483ZM0 10.6667V8.53333H6.17931V10.6667H0ZM0 6.4V4.26667H9.71034V6.4H0ZM0 2.13333V0H9.71034V2.13333H0Z" fill="#24313F"/>
</svg>
