<svg width="22" height="19" viewBox="0 0 22 19" fill="none" xmlns="http://www.w3.org/2000/svg">
<path d="M9.17526 8.68531C11.4326 8.68531 13.2626 6.85296 13.2626 4.59265C13.2626 2.33234 11.4326 0.5 9.17526 0.5C6.91787 0.5 5.08789 2.33234 5.08789 4.59265C5.08789 6.85296 6.91787 8.68531 9.17526 8.68531Z" stroke="white"/>
<path d="M9.53238 10.7416C6.74275 10.6393 1 12.0308 1 14.824V15.8472C1 16.4099 1.45983 16.8703 2.02184 16.8703H10.7484C8.22442 14.0464 9.49151 10.8439 9.53238 10.7416Z" stroke="white"/>
<path d="M18.8108 14.8444C19.2911 14.0259 19.5261 13.0334 19.3013 11.9591C18.9539 10.2811 17.5437 8.94076 15.8475 8.72589C13.16 8.37802 10.8915 10.6392 11.2492 13.3301C11.474 15.0286 12.8024 16.4405 14.4782 16.7884C15.5511 17.0135 16.5423 16.7782 17.3598 16.2973L19.2604 18.2004C19.6589 18.5994 20.3027 18.5994 20.7012 18.2004C21.0997 17.8014 21.0997 17.1568 20.7012 16.7577L18.8108 14.8444ZM15.3059 14.8239C14.1819 14.8239 13.2622 13.9031 13.2622 12.7776C13.2622 11.6521 14.1819 10.7313 15.3059 10.7313C16.4299 10.7313 17.3496 11.6521 17.3496 12.7776C17.3496 13.9031 16.4299 14.8239 15.3059 14.8239Z" stroke="white"/>
</svg>
