<svg width="20" height="20" viewBox="0 0 20 20" fill="none" xmlns="http://www.w3.org/2000/svg">
<path d="M8 3.83333V0.5H0V15.5H16V3.83333H8ZM3.2 13.8333H1.6V12.1667H3.2V13.8333ZM3.2 10.5H1.6V8.83333H3.2V10.5ZM3.2 7.16667H1.6V5.5H3.2V7.16667ZM3.2 3.83333H1.6V2.16667H3.2V3.83333ZM6.4 13.8333H4.8V12.1667H6.4V13.8333ZM6.4 10.5H4.8V8.83333H6.4V10.5ZM6.4 7.16667H4.8V5.5H6.4V7.16667ZM6.4 3.83333H4.8V2.16667H6.4V3.83333ZM14.4 13.8333H8V12.1667H9.6V10.5H8V8.83333H9.6V7.16667H8V5.5H14.4V13.8333ZM12.8 7.16667H11.2V8.83333H12.8V7.16667ZM12.8 10.5H11.2V12.1667H12.8V10.5Z" fill="#043866"/>
<path d="M16.9328 13.9408L18.987 16.0153C18.9873 16.0157 18.9877 16.016 18.988 16.0163C19.671 16.6999 19.6707 17.8045 18.987 18.4876C18.3032 19.1708 17.1976 19.1708 16.5138 18.4876L14.4477 16.4232C13.4208 16.9385 12.2066 17.169 10.9024 16.8961C8.64338 16.4279 6.85413 14.5334 6.55005 12.2419L16.9328 13.9408ZM16.9328 13.9408C17.4489 12.9145 17.68 11.7008 17.4069 10.3971C16.9389 8.14151 15.0438 6.3381 12.7464 6.04741C9.12963 5.58067 6.06794 8.62099 6.55002 12.2417L16.9328 13.9408ZM12.0191 13.5034C10.9168 13.5034 10.0136 12.6003 10.0136 11.5C10.0136 10.3997 10.9168 9.49666 12.0191 9.49666C13.1214 9.49666 14.0246 10.3997 14.0246 11.5C14.0246 12.6003 13.1214 13.5034 12.0191 13.5034Z" fill="#05447A" stroke="white"/>
</svg>
