<svg width="15" height="24" viewBox="0 0 15 24" fill="none" xmlns="http://www.w3.org/2000/svg">
<path d="M11.6551 3.41732C11.8275 1.8674 10.6834 0.474186 9.09982 0.30549C7.51622 0.136793 6.09273 1.2565 5.92037 2.80642C5.748 4.35634 6.89204 5.74955 8.47564 5.91825C10.0592 6.08694 11.4827 4.96724 11.6551 3.41732Z" fill="#3687D9"/>
<path d="M9.56307 17.5046H5.40241C4.43244 17.5046 3.5901 16.8301 3.41142 15.8808L1.98199 8.01124C1.87989 7.48661 1.36938 7.11187 0.833347 7.2118C0.297311 7.31173 -0.0855711 7.81138 0.016531 8.33601L1.44596 16.2055C1.77779 18.0792 3.43695 19.4533 5.40241 19.4533H8.84836V23.0258C8.84836 23.5754 9.30781 24.0001 9.84385 24.0001C10.4054 24.0001 10.8393 23.5504 10.8393 23.0258V18.7787C10.8649 18.0792 10.2778 17.5046 9.56307 17.5046Z" fill="#3687D9"/>
<path d="M12.8303 13.3821H10.2012L10.0991 8.83531C10.0736 7.76105 9.30781 6.8367 8.23574 6.61185C7.82733 6.53691 7.52102 6.46196 7.52102 6.46196C6.95946 6.33705 6.3979 6.43698 5.91292 6.76175C5.42793 7.06154 4.994 7.81102 4.96847 8.78534C4.91742 9.73468 4.78979 13.2322 4.78979 13.8568C4.78979 14.5064 4.81532 15.081 5.22373 15.5556C5.63214 16.0303 6.21922 16.3051 6.83184 16.3051H11.4775C11.7838 16.3051 12.0135 16.5299 12.0135 16.8297V22.4009C12.0135 23.1254 12.524 23.7999 13.2643 23.9248C14.2087 24.0747 15 23.3752 15 22.4758V15.5057C15 14.3315 14.03 13.3821 12.8303 13.3821Z" fill="#3687D9"/>
</svg>
