<svg width="14" height="14" viewBox="0 0 14 14" fill="none" xmlns="http://www.w3.org/2000/svg">
<path fill-rule="evenodd" clip-rule="evenodd" d="M4.53522 2.54055C4.47847 2.54055 4.44394 2.5861 4.44394 2.62759V2.63198C4.44394 2.67347 4.47847 2.71902 4.53522 2.71902H9.19363C9.25038 2.71902 9.2849 2.67346 9.2849 2.63198V2.62759C9.2849 2.5861 9.25038 2.54055 9.19363 2.54055H4.53522ZM3.67832 2.62759C3.67832 2.12985 4.0683 1.73828 4.53522 1.73828H9.19363C9.66054 1.73828 10.0505 2.12985 10.0505 2.62759V2.63198C10.0505 2.8946 9.94196 3.12766 9.77081 3.28924V7.04274C9.77081 7.26428 9.59942 7.44387 9.388 7.44387H4.34177C4.13035 7.44387 3.95896 7.26428 3.95896 7.04274V3.29011C3.78727 3.12849 3.67832 2.89507 3.67832 2.63198V2.62759ZM4.72458 3.52129V6.6416H9.00519V3.52129H4.72458ZM12.7422 6.27585C12.9536 6.27585 13.125 6.45544 13.125 6.67698V11.6632C13.125 11.8847 12.9536 12.0643 12.7422 12.0643C12.5308 12.0643 12.3594 11.8847 12.3594 11.6632V10.2513H11.0864V11.6632C11.0864 11.8847 10.915 12.0643 10.7036 12.0643C10.4922 12.0643 10.3208 11.8847 10.3208 11.6632V9.85013C10.3208 9.62859 10.4922 9.44899 10.7036 9.44899H12.3594V6.67698C12.3594 6.45544 12.5308 6.27585 12.7422 6.27585ZM1.25784 6.37937C1.46926 6.37937 1.64065 6.55896 1.64065 6.7805V9.55247H3.29642C3.50784 9.55247 3.67923 9.73206 3.67923 9.95361V11.7667C3.67923 11.9882 3.50784 12.1678 3.29642 12.1678C3.085 12.1678 2.91361 11.9882 2.91361 11.7667V10.3547H1.64065V11.7667C1.64065 11.9882 1.46926 12.1678 1.25784 12.1678C1.04641 12.1678 0.875024 11.9882 0.875024 11.7667V9.95813C0.875008 9.95663 0.875 9.95512 0.875 9.95361C0.875 9.9521 0.875008 9.95058 0.875024 9.94908V6.7805C0.875024 6.55896 1.04641 6.37937 1.25784 6.37937ZM9.24327 8.75582H9.97398C10.1854 8.75582 10.3568 8.57622 10.3568 8.35468C10.3568 8.13314 10.1854 7.95355 9.97398 7.95355H8.76734C8.76193 7.95343 8.75651 7.95343 8.75108 7.95355H5.34264C5.33759 7.95344 5.33255 7.95344 5.32752 7.95355H4.0104C3.79898 7.95355 3.62759 8.13314 3.62759 8.35468C3.62759 8.57622 3.79898 8.75582 4.0104 8.75582H4.86688L4.29759 11.686C4.25541 11.9031 4.38916 12.1149 4.59634 12.1591C4.80351 12.2033 5.00564 12.0631 5.04782 11.846L5.64821 8.75582H8.45635L9.15968 11.8587C9.20853 12.0743 9.41489 12.2075 9.62059 12.1563C9.82629 12.1051 9.95343 11.8889 9.90458 11.6733L9.24327 8.75582Z" fill="#05447A"/>
</svg>
