<svg width="22" height="26" viewBox="0 0 22 26" fill="none" xmlns="http://www.w3.org/2000/svg">
<path fill-rule="evenodd" clip-rule="evenodd" d="M4.84675 23.4314H1.76923C1.3444 23.4314 1 23.7825 1 24.2157C1 24.6489 1.3444 25 1.76923 25H20.2308C20.6556 25 21 24.6489 21 24.2157C21 23.7825 20.6556 23.4314 20.2308 23.4314H17.1544V1.62744C17.1544 1.46103 17.0896 1.30144 16.9742 1.18377C16.8588 1.06611 16.7023 1 16.5391 1H5.46214C5.29893 1 5.1424 1.06611 5.027 1.18377C4.91159 1.30144 4.84675 1.46103 4.84675 1.62744V23.4314ZM10.3852 23.4314H9.15445V20.413C9.16387 20.2532 9.23284 20.1031 9.34724 19.9934C9.46164 19.8838 9.61282 19.8229 9.76983 19.8232H12.2314C12.3946 19.8232 12.5511 19.8893 12.6665 20.0069C12.7819 20.1246 12.8468 20.2842 12.8468 20.4506V23.4314H11.616V21.078H10.3852V23.4314ZM12.2314 4.76463H13.4621C13.6253 4.76463 13.7819 4.83074 13.8973 4.94841C14.0127 5.06607 14.0775 5.22567 14.0775 5.39207C14.0775 5.55848 14.0127 5.71807 13.8973 5.83574C13.7819 5.95341 13.6253 6.01951 13.4621 6.01951H12.2314C12.0682 6.01951 11.9116 5.95341 11.7962 5.83574C11.6808 5.71807 11.616 5.55848 11.616 5.39207C11.616 5.22567 11.6808 5.06607 11.7962 4.94841C11.9116 4.83074 12.0682 4.76463 12.2314 4.76463ZM12.2314 8.52927H13.4621C13.6253 8.52927 13.7819 8.59537 13.8973 8.71304C14.0127 8.83071 14.0775 8.9903 14.0775 9.15671C14.0775 9.32311 14.0127 9.48271 13.8973 9.60037C13.7819 9.71804 13.6253 9.78415 13.4621 9.78415H12.2314C12.0682 9.78415 11.9116 9.71804 11.7962 9.60037C11.6808 9.48271 11.616 9.32311 11.616 9.15671C11.616 8.9903 11.6808 8.83071 11.7962 8.71304C11.9116 8.59537 12.0682 8.52927 12.2314 8.52927ZM12.2314 12.2939H13.4621C13.6253 12.2939 13.7819 12.36 13.8973 12.4777C14.0127 12.5953 14.0775 12.7549 14.0775 12.9213C14.0775 13.0877 14.0127 13.2473 13.8973 13.365C13.7819 13.4827 13.6253 13.5488 13.4621 13.5488H12.2314C12.0682 13.5488 11.9116 13.4827 11.7962 13.365C11.6808 13.2473 11.616 13.0877 11.616 12.9213C11.616 12.7549 11.6808 12.5953 11.7962 12.4777C11.9116 12.36 12.0682 12.2939 12.2314 12.2939ZM12.2314 16.0585H13.4621C13.6253 16.0585 13.7819 16.1246 13.8973 16.2423C14.0127 16.36 14.0775 16.5196 14.0775 16.686C14.0775 16.8524 14.0127 17.012 13.8973 17.1296C13.7819 17.2473 13.6253 17.3134 13.4621 17.3134H12.2314C12.0682 17.3134 11.9116 17.2473 11.7962 17.1296C11.6808 17.012 11.616 16.8524 11.616 16.686C11.616 16.5196 11.6808 16.36 11.7962 16.2423C11.9116 16.1246 12.0682 16.0585 12.2314 16.0585ZM8.53906 4.76463H9.76983C9.93304 4.76463 10.0896 4.83074 10.205 4.94841C10.3204 5.06607 10.3852 5.22567 10.3852 5.39207C10.3852 5.55848 10.3204 5.71807 10.205 5.83574C10.0896 5.95341 9.93304 6.01951 9.76983 6.01951H8.53906C8.37585 6.01951 8.21933 5.95341 8.10392 5.83574C7.98851 5.71807 7.92368 5.55848 7.92368 5.39207C7.92368 5.22567 7.98851 5.06607 8.10392 4.94841C8.21933 4.83074 8.37585 4.76463 8.53906 4.76463ZM8.53906 8.52927H9.76983C9.93304 8.52927 10.0896 8.59537 10.205 8.71304C10.3204 8.83071 10.3852 8.9903 10.3852 9.15671C10.3852 9.32311 10.3204 9.48271 10.205 9.60037C10.0896 9.71804 9.93304 9.78415 9.76983 9.78415H8.53906C8.37585 9.78415 8.21933 9.71804 8.10392 9.60037C7.98851 9.48271 7.92368 9.32311 7.92368 9.15671C7.92368 8.9903 7.98851 8.83071 8.10392 8.71304C8.21933 8.59537 8.37585 8.52927 8.53906 8.52927ZM8.53906 12.2939H9.76983C9.93304 12.2939 10.0896 12.36 10.205 12.4777C10.3204 12.5953 10.3852 12.7549 10.3852 12.9213C10.3852 13.0877 10.3204 13.2473 10.205 13.365C10.0896 13.4827 9.93304 13.5488 9.76983 13.5488H8.53906C8.37585 13.5488 8.21933 13.4827 8.10392 13.365C7.98851 13.2473 7.92368 13.0877 7.92368 12.9213C7.92368 12.7549 7.98851 12.5953 8.10392 12.4777C8.21933 12.36 8.37585 12.2939 8.53906 12.2939ZM8.53906 16.0585H9.76983C9.93304 16.0585 10.0896 16.1246 10.205 16.2423C10.3204 16.36 10.3852 16.5196 10.3852 16.686C10.3852 16.8524 10.3204 17.012 10.205 17.1296C10.0896 17.2473 9.93304 17.3134 9.76983 17.3134H8.53906C8.37585 17.3134 8.21933 17.2473 8.10392 17.1296C7.98851 17.012 7.92368 16.8524 7.92368 16.686C7.92368 16.5196 7.98851 16.36 8.10392 16.2423C8.21933 16.1246 8.37585 16.0585 8.53906 16.0585Z" stroke="#434356" stroke-linecap="round"/>
</svg>
