<svg width="30" height="20" viewBox="0 0 30 20" fill="none" xmlns="http://www.w3.org/2000/svg">
<path d="M1.66637 5.6322L8.16635 13.1888C11.0002 10.878 14.0987 9.29505 17.4518 8.41229C20.9878 7.48143 24.7985 7.33068 28.8724 7.92723L29.408 8.00566L29.4047 8.54735L29.34 19.0646L29.3361 19.6872H28.7174H1.21739H0.591703L0.594818 19.0597L0.589783 5.63223L1.66637 5.6322ZM7.61874 14.4674L1.89627 7.76531L1.84307 18.4372H28.0987L28.1562 9.08848C24.449 8.60473 20.9833 8.77226 17.7692 9.61838C14.408 10.5033 11.3137 12.132 8.49769 14.5358L8.02308 14.941L7.61874 14.4674Z" fill="#696978"/>
<path d="M19.6548 0.3125C21.6395 0.3125 23.4364 1.11701 24.7371 2.41772C26.0378 3.71844 26.8423 5.51533 26.8423 7.50002C26.8423 7.62289 26.8377 7.76192 26.8287 7.91581C26.82 8.06575 26.8079 8.20566 26.7928 8.33598L26.7241 8.92752L26.1312 8.88775C23.9298 8.74014 21.8178 8.83587 19.7975 9.18102C17.7823 9.52529 15.858 10.1178 14.0269 10.9644L13.4756 11.2193L13.2066 10.6738C12.9668 10.1874 12.7801 9.66988 12.6544 9.12898C12.5321 8.60226 12.4673 8.05683 12.4673 7.50002C12.4673 5.51533 13.2718 3.71844 14.5725 2.41773C15.8733 1.11701 17.6701 0.312502 19.6548 0.312502L19.6548 0.3125ZM23.8533 3.30152C22.7789 2.22709 21.2945 1.56253 19.6548 1.56253C18.0152 1.56253 16.5308 2.22709 15.4563 3.30152C14.3819 4.37596 13.7173 5.86037 13.7173 7.50002C13.7173 7.96813 13.7702 8.42015 13.8703 8.85063C13.9276 9.09714 14.0003 9.33782 14.0873 9.57154C15.8439 8.81561 17.6779 8.27676 19.5875 7.95055C21.5127 7.62163 23.5147 7.50874 25.5916 7.60701C25.5921 7.57271 25.5923 7.53704 25.5923 7.50002C25.5923 5.86036 24.9278 4.37595 23.8533 3.30152L23.8533 3.30152Z" fill="#696978"/>
<path d="M19.6547 3.4375C20.7764 3.4375 21.7921 3.89225 22.5273 4.62744C23.2624 5.36263 23.7172 6.37829 23.7172 7.50004C23.7172 7.63381 23.7091 7.77599 23.6933 7.92565C23.6778 8.07331 23.6555 8.21458 23.6268 8.3491L23.5259 8.82262L23.0409 8.84228C21.9724 8.8856 20.9233 8.99268 19.894 9.16424C18.8636 9.33599 17.862 9.57048 16.8896 9.86836L16.425 10.0107L16.1743 9.59493C15.9883 9.28653 15.8415 8.94809 15.7413 8.58686C15.6441 8.23643 15.5921 7.87179 15.5921 7.50004C15.5921 6.37829 16.0469 5.36264 16.7821 4.62744C17.5173 3.89225 18.5329 3.4375 19.6547 3.4375L19.6547 3.4375ZM21.6435 5.51124C21.1345 5.00232 20.4314 4.68753 19.6547 4.68753C18.8779 4.68753 18.1748 5.00232 17.6659 5.51124C17.157 6.02015 16.8422 6.72332 16.8422 7.50003C16.8422 7.76618 16.8771 8.01914 16.9425 8.25481C16.9682 8.34748 16.9989 8.43862 17.0342 8.52794C17.9059 8.28136 18.7909 8.08346 19.6889 7.93376C20.5946 7.7828 21.5201 7.6795 22.465 7.62343C22.4664 7.58398 22.4672 7.54285 22.4672 7.50003C22.4672 6.72332 22.1524 6.02014 21.6435 5.51123L21.6435 5.51124Z" fill="#696978"/>
<path d="M13.0648 6.88224H1.66663V5.6322H13.0648V6.88224Z" fill="#696978"/>
</svg>
