<svg width="18" height="17" viewBox="0 0 18 17" fill="none" xmlns="http://www.w3.org/2000/svg">
<path d="M7.33333 7.00065C9.17428 7.00065 10.6667 5.50827 10.6667 3.66732C10.6667 1.82637 9.17428 0.333984 7.33333 0.333984C5.49238 0.333984 4 1.82637 4 3.66732C4 5.50827 5.49238 7.00065 7.33333 7.00065Z" fill="#696978"/>
<path d="M7.62484 8.67616C5.34984 8.59283 0.666504 9.72616 0.666504 12.0012V13.6678H8.6165C6.55817 11.3678 7.5915 8.75949 7.62484 8.67616Z" fill="#696978"/>
<path d="M10.1245 9.32995C10.1745 9.39494 12.9943 12.9947 12.9943 12.9947V15.9995C12.9943 16.2745 13.2193 16.4995 13.4993 16.4995H14.5042C14.7792 16.4995 15.0092 16.2745 15.0092 15.9995V12.9897C15.0092 12.9897 17.754 9.47994 17.884 9.31995C18.014 9.15996 17.999 8.99997 17.999 8.99997C17.999 8.72499 17.774 8.5 17.494 8.5H10.5045C10.1995 8.5 9.99951 8.73998 9.99951 8.99997C9.99951 9.09996 10.0295 9.21995 10.1245 9.32995Z" fill="#696978"/>
</svg>
