<svg viewBox="0 0 34 28" fill="none" xmlns="http://www.w3.org/2000/svg">
<path d="M26.75 9.93934V5C26.75 3.9747 26.3765 3.07834 25.6498 2.35167C24.9224 1.62427 24.0257 1.25 23 1.25H5C3.9745 1.25 3.07816 1.62416 2.35167 2.35167C1.62416 3.07816 1.25 3.9745 1.25 5V23C1.25 24.0257 1.62428 24.9224 2.35167 25.6498C3.07834 26.3765 3.9747 26.75 5 26.75H23C24.0253 26.75 24.9219 26.3765 25.6494 25.6503L25.6503 25.6494C26.3765 24.9219 26.75 24.0253 26.75 23V18.0607L30.1947 21.5053C30.3937 21.7044 30.6436 21.8578 30.9426 21.92C31.2387 21.9816 31.5263 21.9422 31.7854 21.8489C31.7858 21.8487 31.7863 21.8486 31.7867 21.8484L26.75 9.93934Z" fill="white" stroke="currentColor" stroke-width="1.5"/>
<path d="M18.5 16.25V18.5H9.5V16.25H8V18.5C8 19.325 8.675 20 9.5 20H18.5C19.325 20 20 19.325 20 18.5V16.25H18.5ZM10.25 11.75L11.3075 12.8075L13.25 10.8725V17H14.75V10.8725L16.6925 12.8075L17.75 11.75L14 8L10.25 11.75Z" fill="currentColor"/>
</svg>
