<svg width="30" height="22" viewBox="0 0 30 22" fill="none" xmlns="http://www.w3.org/2000/svg">
<mask id="path-1-inside-1_13744_18816" fill="white">
<path fill-rule="evenodd" clip-rule="evenodd" d="M11.4947 0.0501901L22.4526 5.30342C22.5789 5.37034 22.6737 5.53764 22.6737 5.70494V9.85399C22.6737 10.0882 22.4842 10.289 22.2632 10.289H19.2316C19.0105 10.289 18.8211 10.0882 18.8211 9.85399V9.08441C18.8211 8.85019 18.6316 8.64943 18.4105 8.64943H4.29474C4.07368 8.64943 3.88421 8.85019 3.88421 9.08441V21.565C3.88421 21.7992 3.69474 22 3.47368 22H0.410526C0.189474 22 0 21.7992 0 21.565V5.70494C0 5.53764 0.0947368 5.37034 0.252632 5.30342L11.1474 0.0501901C11.2737 -0.01673 11.4 -0.01673 11.4947 0.0501901ZM5.68421 18.7209H7.9579C8.17895 18.7209 8.36843 18.9217 8.36843 19.1559V21.565C8.36843 21.7992 8.17895 22 7.9579 22H5.68421C5.46316 22 5.27369 21.7992 5.27369 21.565V19.1559C5.27369 18.9217 5.46316 18.7209 5.68421 18.7209ZM12.4737 18.7209H10.2C9.97895 18.7209 9.78947 18.9217 9.78947 19.1559V21.565C9.78947 21.7992 9.97895 22 10.2 22H12.4737C12.6947 22 12.8842 21.7992 12.8842 21.565V19.1559C12.8842 18.9217 12.6947 18.7209 12.4737 18.7209ZM5.68421 14.438H7.9579C8.17895 14.438 8.36843 14.6388 8.36843 14.873V17.2821C8.36843 17.5163 8.17895 17.7171 7.9579 17.7171H5.68421C5.46316 17.7171 5.27369 17.5163 5.27369 17.2821V14.873C5.27369 14.6388 5.46316 14.438 5.68421 14.438ZM12.4737 14.438H10.2C9.97895 14.438 9.78947 14.6388 9.78947 14.873V17.2821C9.78947 17.5163 9.97895 17.7171 10.2 17.7171H12.4737C12.6947 17.7171 12.8842 17.5163 12.8842 17.2821V14.873C12.8842 14.6388 12.6947 14.438 12.4737 14.438ZM5.68421 10.1886H7.9579C8.17895 10.1886 8.36843 10.3894 8.36843 10.5901V12.9992C8.36843 13.2335 8.17895 13.4342 7.9579 13.4342H5.68421C5.46316 13.4342 5.27369 13.2335 5.27369 12.9992V10.6236C5.27369 10.3894 5.46316 10.1886 5.68421 10.1886ZM12.4737 10.1886H10.2C9.97895 10.1886 9.78947 10.3894 9.78947 10.6236V12.9992C9.78947 13.2335 9.97895 13.4342 10.2 13.4342H12.4737C12.6947 13.4342 12.8842 13.2335 12.8842 12.9992V10.5901C12.8842 10.3894 12.6947 10.1886 12.4737 10.1886ZM14.6526 18.5871H22.0105C22.2 18.5871 22.3579 18.7544 22.3263 18.9551V20.0928C22.3263 20.2935 22.1684 20.4608 21.9789 20.4608H18.5368C18.4737 21.3308 17.8105 22 16.9895 22C16.1684 22 15.5053 21.2973 15.4421 20.4608H14.6526C14.4632 20.4608 14.3053 20.2935 14.3053 20.0928V18.9551C14.3053 18.7544 14.4632 18.5871 14.6526 18.5871ZM16.2 20.327C16.2 20.7954 16.5789 21.197 17.021 21.197C17.4632 21.197 17.8421 20.7954 17.8421 20.327C17.8421 19.8586 17.4632 19.457 17.021 19.457C16.5789 19.457 16.2 19.8586 16.2 20.327ZM29.4 17.0479L27.6 16.7802L26.5579 14.8395C26.2737 14.3042 25.7368 14.003 25.2 14.003H23.2105C23.0211 14.003 22.8632 14.1703 22.8632 14.3711V20.0593C22.8632 20.2601 23.0211 20.4274 23.2105 20.4274H25.7368C25.8 21.2639 26.4632 21.9665 27.2842 21.9665C28.1053 21.9665 28.7684 21.2973 28.8316 20.4274H29.3053C29.6842 20.4274 30 20.0928 30 19.6913V17.7506C30 17.416 29.7474 17.0814 29.4 17.0479ZM26.3053 16.7468H24.0632C24.0316 16.7468 24 16.7133 24 16.6798V15.1407C24 15.1072 24.0316 15.0738 24.0632 15.0738H25.2C25.4211 15.0738 25.6105 15.2076 25.7053 15.4084L26.3684 16.6464C26.4 16.6798 26.3684 16.7468 26.3053 16.7468ZM27.2526 21.197C26.8105 21.197 26.4316 20.7954 26.4316 20.327C26.4316 19.8586 26.8105 19.457 27.2526 19.457C27.6947 19.457 28.0737 19.8586 28.0737 20.327C28.0737 20.7954 27.7263 21.197 27.2526 21.197ZM22.0105 18.0517H14.6526C14.4632 18.0517 14.3053 17.8844 14.3053 17.6837V12.1962C14.3053 11.9954 14.4632 11.8281 14.6526 11.8281H22.0105C22.2 11.8281 22.3579 11.9954 22.3579 12.1962V17.6837C22.3579 17.8844 22.2 18.0517 22.0105 18.0517Z"/>
</mask>
<path fill-rule="evenodd" clip-rule="evenodd" d="M11.4947 0.0501901L22.4526 5.30342C22.5789 5.37034 22.6737 5.53764 22.6737 5.70494V9.85399C22.6737 10.0882 22.4842 10.289 22.2632 10.289H19.2316C19.0105 10.289 18.8211 10.0882 18.8211 9.85399V9.08441C18.8211 8.85019 18.6316 8.64943 18.4105 8.64943H4.29474C4.07368 8.64943 3.88421 8.85019 3.88421 9.08441V21.565C3.88421 21.7992 3.69474 22 3.47368 22H0.410526C0.189474 22 0 21.7992 0 21.565V5.70494C0 5.53764 0.0947368 5.37034 0.252632 5.30342L11.1474 0.0501901C11.2737 -0.01673 11.4 -0.01673 11.4947 0.0501901ZM5.68421 18.7209H7.9579C8.17895 18.7209 8.36843 18.9217 8.36843 19.1559V21.565C8.36843 21.7992 8.17895 22 7.9579 22H5.68421C5.46316 22 5.27369 21.7992 5.27369 21.565V19.1559C5.27369 18.9217 5.46316 18.7209 5.68421 18.7209ZM12.4737 18.7209H10.2C9.97895 18.7209 9.78947 18.9217 9.78947 19.1559V21.565C9.78947 21.7992 9.97895 22 10.2 22H12.4737C12.6947 22 12.8842 21.7992 12.8842 21.565V19.1559C12.8842 18.9217 12.6947 18.7209 12.4737 18.7209ZM5.68421 14.438H7.9579C8.17895 14.438 8.36843 14.6388 8.36843 14.873V17.2821C8.36843 17.5163 8.17895 17.7171 7.9579 17.7171H5.68421C5.46316 17.7171 5.27369 17.5163 5.27369 17.2821V14.873C5.27369 14.6388 5.46316 14.438 5.68421 14.438ZM12.4737 14.438H10.2C9.97895 14.438 9.78947 14.6388 9.78947 14.873V17.2821C9.78947 17.5163 9.97895 17.7171 10.2 17.7171H12.4737C12.6947 17.7171 12.8842 17.5163 12.8842 17.2821V14.873C12.8842 14.6388 12.6947 14.438 12.4737 14.438ZM5.68421 10.1886H7.9579C8.17895 10.1886 8.36843 10.3894 8.36843 10.5901V12.9992C8.36843 13.2335 8.17895 13.4342 7.9579 13.4342H5.68421C5.46316 13.4342 5.27369 13.2335 5.27369 12.9992V10.6236C5.27369 10.3894 5.46316 10.1886 5.68421 10.1886ZM12.4737 10.1886H10.2C9.97895 10.1886 9.78947 10.3894 9.78947 10.6236V12.9992C9.78947 13.2335 9.97895 13.4342 10.2 13.4342H12.4737C12.6947 13.4342 12.8842 13.2335 12.8842 12.9992V10.5901C12.8842 10.3894 12.6947 10.1886 12.4737 10.1886ZM14.6526 18.5871H22.0105C22.2 18.5871 22.3579 18.7544 22.3263 18.9551V20.0928C22.3263 20.2935 22.1684 20.4608 21.9789 20.4608H18.5368C18.4737 21.3308 17.8105 22 16.9895 22C16.1684 22 15.5053 21.2973 15.4421 20.4608H14.6526C14.4632 20.4608 14.3053 20.2935 14.3053 20.0928V18.9551C14.3053 18.7544 14.4632 18.5871 14.6526 18.5871ZM16.2 20.327C16.2 20.7954 16.5789 21.197 17.021 21.197C17.4632 21.197 17.8421 20.7954 17.8421 20.327C17.8421 19.8586 17.4632 19.457 17.021 19.457C16.5789 19.457 16.2 19.8586 16.2 20.327ZM29.4 17.0479L27.6 16.7802L26.5579 14.8395C26.2737 14.3042 25.7368 14.003 25.2 14.003H23.2105C23.0211 14.003 22.8632 14.1703 22.8632 14.3711V20.0593C22.8632 20.2601 23.0211 20.4274 23.2105 20.4274H25.7368C25.8 21.2639 26.4632 21.9665 27.2842 21.9665C28.1053 21.9665 28.7684 21.2973 28.8316 20.4274H29.3053C29.6842 20.4274 30 20.0928 30 19.6913V17.7506C30 17.416 29.7474 17.0814 29.4 17.0479ZM26.3053 16.7468H24.0632C24.0316 16.7468 24 16.7133 24 16.6798V15.1407C24 15.1072 24.0316 15.0738 24.0632 15.0738H25.2C25.4211 15.0738 25.6105 15.2076 25.7053 15.4084L26.3684 16.6464C26.4 16.6798 26.3684 16.7468 26.3053 16.7468ZM27.2526 21.197C26.8105 21.197 26.4316 20.7954 26.4316 20.327C26.4316 19.8586 26.8105 19.457 27.2526 19.457C27.6947 19.457 28.0737 19.8586 28.0737 20.327C28.0737 20.7954 27.7263 21.197 27.2526 21.197ZM22.0105 18.0517H14.6526C14.4632 18.0517 14.3053 17.8844 14.3053 17.6837V12.1962C14.3053 11.9954 14.4632 11.8281 14.6526 11.8281H22.0105C22.2 11.8281 22.3579 11.9954 22.3579 12.1962V17.6837C22.3579 17.8844 22.2 18.0517 22.0105 18.0517Z" stroke="#777777" stroke-width="2" mask="url(#path-1-inside-1_13744_18816)"/>
</svg>
