<svg width="12" height="12" viewBox="0 0 12 12" fill="none" xmlns="http://www.w3.org/2000/svg">
<path fill-rule="evenodd" clip-rule="evenodd" d="M11.4286 5.86286C10.7829 5.41143 9.99429 5.14286 9.14286 5.14286C6.93143 5.14286 5.14286 6.93143 5.14286 9.14286C5.14286 9.76 5.28571 10.3371 5.53143 10.8571H1.14286C0.508571 10.8571 0 10.3486 0 9.71428L0.00571428 3.42857C0.00571428 2.79429 0.508571 2.28571 1.14286 2.28571H3.42857V1.14286C3.42857 0.508571 3.93714 0 4.57143 0H6.85714C7.49143 0 8 0.508571 8 1.14286V2.28571H10.2857C10.92 2.28571 11.4286 2.79429 11.4286 3.42857V5.86286ZM6.85714 1.14286H4.57143V2.28571H6.85714V1.14286ZM6.28571 9.14285C6.28571 7.56571 7.56571 6.28571 9.14285 6.28571C10.72 6.28571 12 7.56571 12 9.14285C12 10.72 10.72 12 9.14285 12C7.56571 12 6.28571 10.72 6.28571 9.14285ZM8.85713 9.25713L10.0857 10.4857L10.4857 10.08L9.42856 9.02285V7.42856H8.85713V9.25713Z" fill="#667B85"/>
</svg>
