<svg width="24" height="24" viewBox="0 0 24 24" fill="none" xmlns="http://www.w3.org/2000/svg">
<path fill-rule="evenodd" clip-rule="evenodd" d="M1.22055 1.00169C1.15687 1.01595 1.1001 1.05186 1.05992 1.10328C1.01974 1.15471 0.998643 1.21848 1.00021 1.28372V6.94193C0.999685 6.97931 1.00659 7.01641 1.02053 7.05109C1.03446 7.08577 1.05515 7.11734 1.08139 7.14395C1.10763 7.17057 1.1389 7.1917 1.17338 7.20613C1.20786 7.22055 1.24487 7.22798 1.28224 7.22798C1.31962 7.22798 1.35662 7.22055 1.3911 7.20613C1.42558 7.1917 1.45685 7.17057 1.48309 7.14395C1.50933 7.11734 1.53002 7.08577 1.54396 7.05109C1.5579 7.01641 1.5648 6.97931 1.56427 6.94193V1.56575H6.94045C6.97783 1.56628 7.01493 1.55937 7.04961 1.54544C7.08429 1.5315 7.11586 1.51081 7.14247 1.48457C7.16909 1.45833 7.19022 1.42706 7.20465 1.39258C7.21907 1.3581 7.2265 1.3211 7.2265 1.28372C7.2265 1.24635 7.21907 1.20934 7.20465 1.17486C7.19022 1.14038 7.16909 1.10911 7.14247 1.08287C7.11586 1.05663 7.08429 1.03594 7.04961 1.022C7.01493 1.00807 6.97783 1.00116 6.94045 1.00169H1.28224C1.26174 0.999436 1.24105 0.999436 1.22055 1.00169ZM17.0054 1.00169C16.9306 1.0087 16.8616 1.04514 16.8137 1.10299C16.7658 1.16084 16.7428 1.23536 16.7498 1.31016C16.7568 1.38496 16.7932 1.45391 16.8511 1.50184C16.9089 1.54977 16.9835 1.57276 17.0583 1.56575H22.4344V6.94193C22.4339 6.97931 22.4408 7.01641 22.4548 7.05109C22.4687 7.08577 22.4894 7.11734 22.5156 7.14395C22.5419 7.17057 22.5731 7.1917 22.6076 7.20613C22.6421 7.22055 22.6791 7.22798 22.7165 7.22798C22.7538 7.22798 22.7908 7.22055 22.8253 7.20613C22.8598 7.1917 22.8911 7.17057 22.9173 7.14395C22.9436 7.11734 22.9642 7.08577 22.9782 7.05109C22.9921 7.01641 22.999 6.97931 22.9985 6.94193V1.28372C22.9985 1.20892 22.9688 1.13719 22.9159 1.0843C22.863 1.03142 22.7913 1.0017 22.7165 1.00169H17.0583C17.0407 1.00004 17.023 1.00004 17.0054 1.00169ZM1.24699 16.7689C1.17691 16.7777 1.11268 16.8124 1.06699 16.8663C1.02129 16.9201 0.997466 16.9892 1.00021 17.0597V22.7179C1.00022 22.7927 1.02994 22.8645 1.08283 22.9174C1.13572 22.9702 1.20745 23 1.28224 23H6.94045C6.97783 23.0005 7.01493 22.9936 7.04961 22.9797C7.08429 22.9657 7.11586 22.945 7.14247 22.9188C7.16909 22.8926 7.19022 22.8613 7.20465 22.8268C7.21907 22.7923 7.2265 22.7553 7.2265 22.7179C7.2265 22.6806 7.21907 22.6436 7.20465 22.6091C7.19022 22.5746 7.16909 22.5433 7.14247 22.5171C7.11586 22.4909 7.08429 22.4702 7.04961 22.4562C7.01493 22.4423 6.97783 22.4354 6.94045 22.4359H1.56427V17.0597C1.56587 17.0188 1.55854 16.978 1.54278 16.9402C1.52702 16.9024 1.50322 16.8685 1.47302 16.8408C1.44283 16.8131 1.40697 16.7923 1.36793 16.7799C1.3289 16.7675 1.28763 16.7637 1.24699 16.7689ZM22.6812 16.7689C22.6111 16.7777 22.5469 16.8124 22.5012 16.8663C22.4555 16.9201 22.4317 16.9892 22.4344 17.0597V22.4359H17.0583C17.0209 22.4354 16.9838 22.4423 16.9491 22.4562C16.9144 22.4702 16.8829 22.4909 16.8562 22.5171C16.8296 22.5433 16.8085 22.5746 16.7941 22.6091C16.7796 22.6436 16.7722 22.6806 16.7722 22.7179C16.7722 22.7553 16.7796 22.7923 16.7941 22.8268C16.8085 22.8613 16.8296 22.8926 16.8562 22.9188C16.8829 22.945 16.9144 22.9657 16.9491 22.9797C16.9838 22.9936 17.0209 23.0005 17.0583 23H22.7165C22.7913 23 22.863 22.9702 22.9159 22.9174C22.9688 22.8645 22.9985 22.7927 22.9985 22.7179V17.0597C23.0001 17.0188 22.9928 16.978 22.977 16.9402C22.9612 16.9024 22.9374 16.8685 22.9072 16.8408C22.877 16.8131 22.8412 16.7923 22.8022 16.7799C22.7631 16.7675 22.7219 16.7637 22.6812 16.7689ZM20.0988 16.0989V19.6989C20.0988 19.9198 19.9197 20.0989 19.6988 20.0989H16.0988C15.8779 20.0989 15.6988 19.9198 15.6988 19.6989C15.6988 19.478 15.8779 19.2989 16.0988 19.2989H18.7331L13.9163 14.4821L14.4819 13.9164L19.2988 18.7332V16.0989C19.2988 15.878 19.4779 15.6989 19.6988 15.6989C19.9197 15.6989 20.0988 15.878 20.0988 16.0989ZM19.6988 3.90013L16.0988 3.90013C15.8779 3.90013 15.6988 4.07921 15.6988 4.30013C15.6988 4.52104 15.8779 4.70013 16.0988 4.70013L18.7331 4.70013L13.9163 9.51696L14.4819 10.0826L19.2988 5.26581V7.90013C19.2988 8.12104 19.4779 8.30013 19.6988 8.30013C19.9197 8.30013 20.0988 8.12104 20.0988 7.90013V4.30013C20.0988 4.07921 19.9197 3.90013 19.6988 3.90013ZM3.9 7.90013L3.90001 4.30013C3.9 4.07921 4.07909 3.90013 4.30001 3.90013L7.9 3.90013C8.12092 3.90013 8.3 4.07921 8.30001 4.30013C8.3 4.52104 8.12092 4.70013 7.90001 4.70013L5.26569 4.70013L10.0825 9.51696L9.51684 10.0826L4.70001 5.26581V7.90013C4.7 8.12104 4.52092 8.30013 4.30001 8.30013C4.07909 8.30013 3.90001 8.12104 3.9 7.90013ZM4.30001 20.0989H7.9C8.12092 20.0989 8.3 19.9198 8.30001 19.6989C8.3 19.478 8.12092 19.2989 7.90001 19.2989H5.26569L10.0825 14.4821L9.51684 13.9164L4.70001 18.7332V16.0989C4.7 15.878 4.52092 15.6989 4.30001 15.6989C4.07909 15.6989 3.90001 15.878 3.9 16.0989L3.90001 19.6989C3.9 19.9198 4.07909 20.0989 4.30001 20.0989Z" fill="#FA9D4B" stroke="#FA9D4B"/>
</svg>
